<mxfile host="app.diagrams.net" modified="2023-05-28T17:03:00.288Z" agent="Mozilla/5.0 (Windows NT 10.0; Win64; x64) AppleWebKit/537.36 (KHTML, like Gecko) Chrome/113.0.0.0 Safari/537.36" etag="kvW9BJwevJlKA0TKPTzQ" version="21.3.5" type="device">
  <diagram name="Σελίδα-1" id="CdQbTjB_sIBEI84miLRL">
    <mxGraphModel dx="1914" dy="967" grid="1" gridSize="10" guides="1" tooltips="1" connect="1" arrows="1" fold="1" page="1" pageScale="1" pageWidth="827" pageHeight="1169" math="0" shadow="0">
      <root>
        <mxCell id="0" />
        <mxCell id="1" parent="0" />
        <mxCell id="8wgsg1sAs0LQzEi6TIEt-9" value="User" style="html=1;overflow=block;blockSpacing=1;swimlane;childLayout=stackLayout;horizontal=1;horizontalStack=0;resizeParent=1;resizeParentMax=0;resizeLast=0;collapsible=0;marginBottom=0;swimlaneFillColor=#ffffff;startSize=25;whiteSpace=wrap;fontSize=15.2;fontColor=#333333;fontStyle=1;align=center;spacing=0;strokeColor=#333333;strokeOpacity=100;fillOpacity=100;fillColor=#ffffff;strokeWidth=1.5;" parent="1" vertex="1">
          <mxGeometry x="710" y="70" width="170" height="250" as="geometry" />
        </mxCell>
        <mxCell id="8wgsg1sAs0LQzEi6TIEt-10" value="string username&lt;br&gt;string password" style="part=1;html=1;resizeHeight=0;strokeColor=none;fillColor=none;verticalAlign=middle;spacingLeft=4;spacingRight=4;overflow=hidden;rotatable=0;points=[[0,0.5],[1,0.5]];portConstraint=eastwest;swimlaneFillColor=#ffffff;strokeOpacity=100;fillOpacity=100;whiteSpace=wrap;fontSize=13;align=center;" parent="8wgsg1sAs0LQzEi6TIEt-9" vertex="1">
          <mxGeometry y="25" width="170" height="45" as="geometry" />
        </mxCell>
        <mxCell id="8wgsg1sAs0LQzEi6TIEt-11" value="" style="line;strokeWidth=1;fillColor=none;align=left;verticalAlign=middle;spacingTop=-1;spacingLeft=3;spacingRight=3;rotatable=0;labelPosition=right;points=[];portConstraint=eastwest;" parent="8wgsg1sAs0LQzEi6TIEt-9" vertex="1">
          <mxGeometry y="70" width="170" height="8" as="geometry" />
        </mxCell>
        <mxCell id="8wgsg1sAs0LQzEi6TIEt-12" value="login()&lt;br&gt;writePost()&lt;br&gt;showMessages()&lt;br&gt;showProfilePage()&lt;br&gt;goToFeed()&lt;br&gt;SelectPlaceOrderFunction()&lt;br&gt;SelectProductCategory()&lt;br&gt;AddToCart()&lt;br&gt;SelectPaymentMethod()&lt;br&gt;SelectTrackOrderFunction()&lt;br&gt;" style="part=1;html=1;resizeHeight=0;strokeColor=none;fillColor=none;verticalAlign=middle;spacingLeft=4;spacingRight=4;overflow=hidden;rotatable=0;points=[[0,0.5],[1,0.5]];portConstraint=eastwest;swimlaneFillColor=#ffffff;strokeOpacity=100;fillOpacity=100;whiteSpace=wrap;fontSize=13;align=center;" parent="8wgsg1sAs0LQzEi6TIEt-9" vertex="1">
          <mxGeometry y="78" width="170" height="172" as="geometry" />
        </mxCell>
        <mxCell id="8wgsg1sAs0LQzEi6TIEt-17" value="Food" style="html=1;overflow=block;blockSpacing=1;swimlane;childLayout=stackLayout;horizontal=1;horizontalStack=0;resizeParent=1;resizeParentMax=0;resizeLast=0;collapsible=0;marginBottom=0;swimlaneFillColor=#ffffff;startSize=25;whiteSpace=wrap;fontSize=15.2;fontColor=#333333;fontStyle=1;align=center;spacing=0;strokeColor=#333333;strokeOpacity=100;fillOpacity=100;fillColor=#ffffff;strokeWidth=1.5;" parent="1" vertex="1">
          <mxGeometry x="1281" y="532" width="160" height="200" as="geometry" />
        </mxCell>
        <mxCell id="8wgsg1sAs0LQzEi6TIEt-18" value="int foodCalories&lt;br style=&quot;border-color: var(--border-color);&quot;&gt;string foodName&lt;br style=&quot;border-color: var(--border-color);&quot;&gt;float foodFat&lt;br style=&quot;border-color: var(--border-color);&quot;&gt;int foodprotein&lt;br style=&quot;border-color: var(--border-color);&quot;&gt;int foodsodium&lt;br style=&quot;border-color: var(--border-color);&quot;&gt;int foodcarbs&lt;br style=&quot;border-color: var(--border-color);&quot;&gt;int foodpot&lt;br style=&quot;border-color: var(--border-color);&quot;&gt;int foodchol" style="part=1;html=1;resizeHeight=0;strokeColor=none;fillColor=none;verticalAlign=middle;spacingLeft=4;spacingRight=4;overflow=hidden;rotatable=0;points=[[0,0.5],[1,0.5]];portConstraint=eastwest;swimlaneFillColor=#ffffff;strokeOpacity=100;fillOpacity=100;whiteSpace=wrap;fontSize=13;align=center;" parent="8wgsg1sAs0LQzEi6TIEt-17" vertex="1">
          <mxGeometry y="25" width="160" height="135" as="geometry" />
        </mxCell>
        <mxCell id="8wgsg1sAs0LQzEi6TIEt-19" value="" style="line;strokeWidth=1;fillColor=none;align=left;verticalAlign=middle;spacingTop=-1;spacingLeft=3;spacingRight=3;rotatable=0;labelPosition=right;points=[];portConstraint=eastwest;" parent="8wgsg1sAs0LQzEi6TIEt-17" vertex="1">
          <mxGeometry y="160" width="160" height="8" as="geometry" />
        </mxCell>
        <mxCell id="8wgsg1sAs0LQzEi6TIEt-20" value="Getters" style="part=1;html=1;resizeHeight=0;strokeColor=none;fillColor=none;verticalAlign=middle;spacingLeft=4;spacingRight=4;overflow=hidden;rotatable=0;points=[[0,0.5],[1,0.5]];portConstraint=eastwest;swimlaneFillColor=#ffffff;strokeOpacity=100;fillOpacity=100;whiteSpace=wrap;fontSize=13;align=center;" parent="8wgsg1sAs0LQzEi6TIEt-17" vertex="1">
          <mxGeometry y="168" width="160" height="32" as="geometry" />
        </mxCell>
        <mxCell id="8wgsg1sAs0LQzEi6TIEt-21" value="Drink" style="html=1;overflow=block;blockSpacing=1;swimlane;childLayout=stackLayout;horizontal=1;horizontalStack=0;resizeParent=1;resizeParentMax=0;resizeLast=0;collapsible=0;marginBottom=0;swimlaneFillColor=#ffffff;startSize=25;whiteSpace=wrap;fontSize=15.2;fontColor=#333333;fontStyle=1;align=center;spacing=0;strokeColor=#333333;strokeOpacity=100;fillOpacity=100;fillColor=#ffffff;strokeWidth=1.5;" parent="1" vertex="1">
          <mxGeometry x="1490" y="552" width="171" height="180" as="geometry" />
        </mxCell>
        <mxCell id="8wgsg1sAs0LQzEi6TIEt-22" value="int drinkCalories&lt;br&gt;string DrinkName&lt;br&gt;float drinkFat&lt;br&gt;int drinkprotein&lt;br&gt;int drinksodium&lt;br&gt;int drinkcarbs&lt;br&gt;int drinkpot&lt;br&gt;int drinkchol" style="part=1;html=1;resizeHeight=0;strokeColor=none;fillColor=none;verticalAlign=middle;spacingLeft=4;spacingRight=4;overflow=hidden;rotatable=0;points=[[0,0.5],[1,0.5]];portConstraint=eastwest;swimlaneFillColor=#ffffff;strokeOpacity=100;fillOpacity=100;whiteSpace=wrap;fontSize=13;align=center;" parent="8wgsg1sAs0LQzEi6TIEt-21" vertex="1">
          <mxGeometry y="25" width="171" height="115" as="geometry" />
        </mxCell>
        <mxCell id="8wgsg1sAs0LQzEi6TIEt-23" value="" style="line;strokeWidth=1;fillColor=none;align=left;verticalAlign=middle;spacingTop=-1;spacingLeft=3;spacingRight=3;rotatable=0;labelPosition=right;points=[];portConstraint=eastwest;" parent="8wgsg1sAs0LQzEi6TIEt-21" vertex="1">
          <mxGeometry y="140" width="171" height="8" as="geometry" />
        </mxCell>
        <mxCell id="8wgsg1sAs0LQzEi6TIEt-24" value="Getters" style="part=1;html=1;resizeHeight=0;strokeColor=none;fillColor=none;verticalAlign=middle;spacingLeft=4;spacingRight=4;overflow=hidden;rotatable=0;points=[[0,0.5],[1,0.5]];portConstraint=eastwest;swimlaneFillColor=#ffffff;strokeOpacity=100;fillOpacity=100;whiteSpace=wrap;fontSize=13;align=center;" parent="8wgsg1sAs0LQzEi6TIEt-21" vertex="1">
          <mxGeometry y="148" width="171" height="32" as="geometry" />
        </mxCell>
        <mxCell id="8wgsg1sAs0LQzEi6TIEt-25" value="Meal" style="html=1;overflow=block;blockSpacing=1;swimlane;childLayout=stackLayout;horizontal=1;horizontalStack=0;resizeParent=1;resizeParentMax=0;resizeLast=0;collapsible=0;marginBottom=0;swimlaneFillColor=#ffffff;startSize=25;whiteSpace=wrap;fontSize=15.2;fontColor=#333333;fontStyle=1;align=center;spacing=0;strokeColor=#333333;strokeOpacity=100;fillOpacity=100;fillColor=#ffffff;strokeWidth=1.5;" parent="1" vertex="1">
          <mxGeometry x="1405" y="330" width="190" height="140" as="geometry" />
        </mxCell>
        <mxCell id="8wgsg1sAs0LQzEi6TIEt-26" value="string Name, type&lt;br&gt;int TotalCalories&lt;br&gt;Food f,secondaty,third&lt;br&gt;Drink d" style="part=1;html=1;resizeHeight=0;strokeColor=none;fillColor=none;verticalAlign=middle;spacingLeft=4;spacingRight=4;overflow=hidden;rotatable=0;points=[[0,0.5],[1,0.5]];portConstraint=eastwest;swimlaneFillColor=#ffffff;strokeOpacity=100;fillOpacity=100;whiteSpace=wrap;fontSize=13;align=center;" parent="8wgsg1sAs0LQzEi6TIEt-25" vertex="1">
          <mxGeometry y="25" width="190" height="75" as="geometry" />
        </mxCell>
        <mxCell id="8wgsg1sAs0LQzEi6TIEt-27" value="" style="line;strokeWidth=1;fillColor=none;align=left;verticalAlign=middle;spacingTop=-1;spacingLeft=3;spacingRight=3;rotatable=0;labelPosition=right;points=[];portConstraint=eastwest;" parent="8wgsg1sAs0LQzEi6TIEt-25" vertex="1">
          <mxGeometry y="100" width="190" height="8" as="geometry" />
        </mxCell>
        <mxCell id="8wgsg1sAs0LQzEi6TIEt-28" value="Getters" style="part=1;html=1;resizeHeight=0;strokeColor=none;fillColor=none;verticalAlign=middle;spacingLeft=4;spacingRight=4;overflow=hidden;rotatable=0;points=[[0,0.5],[1,0.5]];portConstraint=eastwest;swimlaneFillColor=#ffffff;strokeOpacity=100;fillOpacity=100;whiteSpace=wrap;fontSize=13;align=center;" parent="8wgsg1sAs0LQzEi6TIEt-25" vertex="1">
          <mxGeometry y="108" width="190" height="32" as="geometry" />
        </mxCell>
        <mxCell id="8wgsg1sAs0LQzEi6TIEt-29" value="Exercise" style="html=1;overflow=block;blockSpacing=1;swimlane;childLayout=stackLayout;horizontal=1;horizontalStack=0;resizeParent=1;resizeParentMax=0;resizeLast=0;collapsible=0;marginBottom=0;swimlaneFillColor=#ffffff;startSize=25;whiteSpace=wrap;fontSize=15.2;fontColor=#333333;fontStyle=1;align=center;spacing=0;strokeColor=#333333;strokeOpacity=100;fillOpacity=100;fillColor=#ffffff;strokeWidth=1.5;" parent="1" vertex="1">
          <mxGeometry x="1067" y="630" width="195" height="110" as="geometry" />
        </mxCell>
        <mxCell id="8wgsg1sAs0LQzEi6TIEt-30" value="String ExerciseName &lt;br&gt;String MusclesAffected&lt;br&gt;&amp;nbsp;String Variation&lt;br&gt;int AvgCaloriesBurnt" style="part=1;html=1;resizeHeight=0;strokeColor=none;fillColor=none;verticalAlign=middle;spacingLeft=4;spacingRight=4;overflow=hidden;rotatable=0;points=[[0,0.5],[1,0.5]];portConstraint=eastwest;swimlaneFillColor=#ffffff;strokeOpacity=100;fillOpacity=100;whiteSpace=wrap;fontSize=13;align=center;" parent="8wgsg1sAs0LQzEi6TIEt-29" vertex="1">
          <mxGeometry y="25" width="195" height="65" as="geometry" />
        </mxCell>
        <mxCell id="8wgsg1sAs0LQzEi6TIEt-31" value="" style="line;strokeWidth=1;fillColor=none;align=left;verticalAlign=middle;spacingTop=-1;spacingLeft=3;spacingRight=3;rotatable=0;labelPosition=right;points=[];portConstraint=eastwest;" parent="8wgsg1sAs0LQzEi6TIEt-29" vertex="1">
          <mxGeometry y="90" width="195" height="20" as="geometry" />
        </mxCell>
        <mxCell id="8wgsg1sAs0LQzEi6TIEt-33" value="Exercise_Plan" style="html=1;overflow=block;blockSpacing=1;swimlane;childLayout=stackLayout;horizontal=1;horizontalStack=0;resizeParent=1;resizeParentMax=0;resizeLast=0;collapsible=0;marginBottom=0;swimlaneFillColor=#ffffff;startSize=25;whiteSpace=wrap;fontSize=15.2;fontColor=#333333;fontStyle=1;align=center;spacing=0;strokeColor=#333333;strokeOpacity=100;fillOpacity=100;fillColor=#ffffff;strokeWidth=1.5;" parent="1" vertex="1">
          <mxGeometry x="1010" y="334" width="260" height="230" as="geometry" />
        </mxCell>
        <mxCell id="8wgsg1sAs0LQzEi6TIEt-34" value="Arraylist Monday,Tuesday&lt;br&gt;Wednesday,Thurdsay,Friday&lt;br&gt;Saturday" style="part=1;html=1;resizeHeight=0;strokeColor=none;fillColor=none;verticalAlign=middle;spacingLeft=4;spacingRight=4;overflow=hidden;rotatable=0;points=[[0,0.5],[1,0.5]];portConstraint=eastwest;swimlaneFillColor=#ffffff;strokeOpacity=100;fillOpacity=100;whiteSpace=wrap;fontSize=13;align=center;" parent="8wgsg1sAs0LQzEi6TIEt-33" vertex="1">
          <mxGeometry y="25" width="260" height="55" as="geometry" />
        </mxCell>
        <mxCell id="8wgsg1sAs0LQzEi6TIEt-35" value="" style="line;strokeWidth=1;fillColor=none;align=left;verticalAlign=middle;spacingTop=-1;spacingLeft=3;spacingRight=3;rotatable=0;labelPosition=right;points=[];portConstraint=eastwest;" parent="8wgsg1sAs0LQzEi6TIEt-33" vertex="1">
          <mxGeometry y="80" width="260" height="8" as="geometry" />
        </mxCell>
        <mxCell id="8wgsg1sAs0LQzEi6TIEt-36" value="Make_ExPlan(User_profile u,&lt;br&gt;ArrayList ExerciseList)&lt;br&gt;Show_options(int days, type)&lt;br&gt;Make_Plan(int days,type, Arraylist ExerciseList)&lt;br&gt;Show_Plan(int type)&lt;br&gt;Make_changes()&lt;br&gt;Save_Plan(User_profile u)" style="part=1;html=1;resizeHeight=0;strokeColor=none;fillColor=none;verticalAlign=middle;spacingLeft=4;spacingRight=4;overflow=hidden;rotatable=0;points=[[0,0.5],[1,0.5]];portConstraint=eastwest;swimlaneFillColor=#ffffff;strokeOpacity=100;fillOpacity=100;whiteSpace=wrap;fontSize=13;align=center;" parent="8wgsg1sAs0LQzEi6TIEt-33" vertex="1">
          <mxGeometry y="88" width="260" height="142" as="geometry" />
        </mxCell>
        <mxCell id="8wgsg1sAs0LQzEi6TIEt-37" value="Food_Plan" style="html=1;overflow=block;blockSpacing=1;swimlane;childLayout=stackLayout;horizontal=1;horizontalStack=0;resizeParent=1;resizeParentMax=0;resizeLast=0;collapsible=0;marginBottom=0;swimlaneFillColor=#ffffff;startSize=25;whiteSpace=wrap;fontSize=15.2;fontColor=#333333;fontStyle=1;align=center;spacing=0;strokeColor=#333333;strokeOpacity=100;fillOpacity=100;fillColor=#ffffff;strokeWidth=1.5;" parent="1" vertex="1">
          <mxGeometry x="1370" y="19" width="250" height="236" as="geometry" />
        </mxCell>
        <mxCell id="8wgsg1sAs0LQzEi6TIEt-38" value="Arraylist Monday,Tuesday&lt;br style=&quot;border-color: var(--border-color);&quot;&gt;Wednesday,Thurdsay,Friday&lt;br style=&quot;border-color: var(--border-color);&quot;&gt;Saturday" style="part=1;html=1;resizeHeight=0;strokeColor=none;fillColor=none;verticalAlign=middle;spacingLeft=4;spacingRight=4;overflow=hidden;rotatable=0;points=[[0,0.5],[1,0.5]];portConstraint=eastwest;swimlaneFillColor=#ffffff;strokeOpacity=100;fillOpacity=100;whiteSpace=wrap;fontSize=13;align=center;" parent="8wgsg1sAs0LQzEi6TIEt-37" vertex="1">
          <mxGeometry y="25" width="250" height="75" as="geometry" />
        </mxCell>
        <mxCell id="8wgsg1sAs0LQzEi6TIEt-39" value="" style="line;strokeWidth=1;fillColor=none;align=left;verticalAlign=middle;spacingTop=-1;spacingLeft=3;spacingRight=3;rotatable=0;labelPosition=right;points=[];portConstraint=eastwest;" parent="8wgsg1sAs0LQzEi6TIEt-37" vertex="1">
          <mxGeometry y="100" width="250" height="6" as="geometry" />
        </mxCell>
        <mxCell id="8wgsg1sAs0LQzEi6TIEt-40" value="Make_FoodPlan(User_profile u,&lt;br style=&quot;border-color: var(--border-color);&quot;&gt;ArrayList MealList)&lt;br style=&quot;border-color: var(--border-color);&quot;&gt;Find_FoodAndDrinks(User_profile u,int type, Arraylist ExerciseList)&lt;br style=&quot;border-color: var(--border-color);&quot;&gt;Show_Plan()&lt;br style=&quot;border-color: var(--border-color);&quot;&gt;Make_changes()&lt;br style=&quot;border-color: var(--border-color);&quot;&gt;Save_Plan(User_profile u)" style="part=1;html=1;resizeHeight=0;strokeColor=none;fillColor=none;verticalAlign=middle;spacingLeft=4;spacingRight=4;overflow=hidden;rotatable=0;points=[[0,0.5],[1,0.5]];portConstraint=eastwest;swimlaneFillColor=#ffffff;strokeOpacity=100;fillOpacity=100;whiteSpace=wrap;fontSize=13;align=center;" parent="8wgsg1sAs0LQzEi6TIEt-37" vertex="1">
          <mxGeometry y="106" width="250" height="130" as="geometry" />
        </mxCell>
        <mxCell id="8wgsg1sAs0LQzEi6TIEt-41" value="Daily_Total" style="html=1;overflow=block;blockSpacing=1;swimlane;childLayout=stackLayout;horizontal=1;horizontalStack=0;resizeParent=1;resizeParentMax=0;resizeLast=0;collapsible=0;marginBottom=0;swimlaneFillColor=#ffffff;startSize=25;whiteSpace=wrap;fontSize=15.2;fontColor=#333333;fontStyle=1;align=center;spacing=0;strokeColor=#333333;strokeOpacity=100;fillOpacity=100;fillColor=#ffffff;strokeWidth=1.5;" parent="1" vertex="1">
          <mxGeometry x="70" y="1010" width="190" height="170" as="geometry" />
        </mxCell>
        <mxCell id="8wgsg1sAs0LQzEi6TIEt-42" value="int points" style="part=1;html=1;resizeHeight=0;strokeColor=none;fillColor=none;verticalAlign=middle;spacingLeft=4;spacingRight=4;overflow=hidden;rotatable=0;points=[[0,0.5],[1,0.5]];portConstraint=eastwest;swimlaneFillColor=#ffffff;strokeOpacity=100;fillOpacity=100;whiteSpace=wrap;fontSize=13;align=center;" parent="8wgsg1sAs0LQzEi6TIEt-41" vertex="1">
          <mxGeometry y="25" width="190" height="31" as="geometry" />
        </mxCell>
        <mxCell id="8wgsg1sAs0LQzEi6TIEt-43" value="" style="line;strokeWidth=1;fillColor=none;align=left;verticalAlign=middle;spacingTop=-1;spacingLeft=3;spacingRight=3;rotatable=0;labelPosition=right;points=[];portConstraint=eastwest;" parent="8wgsg1sAs0LQzEi6TIEt-41" vertex="1">
          <mxGeometry y="56" width="190" height="8" as="geometry" />
        </mxCell>
        <mxCell id="8wgsg1sAs0LQzEi6TIEt-44" value="add_workout_points()&lt;br&gt;add_program_points()&lt;br&gt;deduct_program_points()&lt;br&gt;calculate_points_per_calories()&lt;br&gt;add_points_to_total()" style="part=1;html=1;resizeHeight=0;strokeColor=none;fillColor=none;verticalAlign=middle;spacingLeft=4;spacingRight=4;overflow=hidden;rotatable=0;points=[[0,0.5],[1,0.5]];portConstraint=eastwest;swimlaneFillColor=#ffffff;strokeOpacity=100;fillOpacity=100;whiteSpace=wrap;fontSize=13;align=center;" parent="8wgsg1sAs0LQzEi6TIEt-41" vertex="1">
          <mxGeometry y="64" width="190" height="106" as="geometry" />
        </mxCell>
        <mxCell id="8wgsg1sAs0LQzEi6TIEt-45" value="Order" style="html=1;overflow=block;blockSpacing=1;swimlane;childLayout=stackLayout;horizontal=1;horizontalStack=0;resizeParent=1;resizeParentMax=0;resizeLast=0;collapsible=0;marginBottom=0;swimlaneFillColor=#ffffff;startSize=25;whiteSpace=wrap;fontSize=15.2;fontColor=#333333;fontStyle=1;align=center;spacing=0;strokeColor=#333333;strokeOpacity=100;fillOpacity=100;fillColor=#ffffff;strokeWidth=1.5;" parent="1" vertex="1">
          <mxGeometry x="468" y="169" width="138" height="130" as="geometry" />
        </mxCell>
        <mxCell id="8wgsg1sAs0LQzEi6TIEt-46" value="" style="part=1;html=1;resizeHeight=0;strokeColor=none;fillColor=none;verticalAlign=middle;spacingLeft=4;spacingRight=4;overflow=hidden;rotatable=0;points=[[0,0.5],[1,0.5]];portConstraint=eastwest;swimlaneFillColor=#ffffff;strokeOpacity=100;fillOpacity=100;whiteSpace=wrap;fontSize=13;align=center;" parent="8wgsg1sAs0LQzEi6TIEt-45" vertex="1">
          <mxGeometry y="25" width="138" height="31" as="geometry" />
        </mxCell>
        <mxCell id="8wgsg1sAs0LQzEi6TIEt-47" value="" style="line;strokeWidth=1;fillColor=none;align=left;verticalAlign=middle;spacingTop=-1;spacingLeft=3;spacingRight=3;rotatable=0;labelPosition=right;points=[];portConstraint=eastwest;" parent="8wgsg1sAs0LQzEi6TIEt-45" vertex="1">
          <mxGeometry y="56" width="138" height="8" as="geometry" />
        </mxCell>
        <mxCell id="8wgsg1sAs0LQzEi6TIEt-48" value="CalculateTotalAmount()&lt;br&gt;SendTotalAmount()&lt;br&gt;CalculateShipping()&lt;br&gt;AddShipping()&lt;br&gt;" style="part=1;html=1;resizeHeight=0;strokeColor=none;fillColor=none;verticalAlign=middle;spacingLeft=4;spacingRight=4;overflow=hidden;rotatable=0;points=[[0,0.5],[1,0.5]];portConstraint=eastwest;swimlaneFillColor=#ffffff;strokeOpacity=100;fillOpacity=100;whiteSpace=wrap;fontSize=13;align=center;" parent="8wgsg1sAs0LQzEi6TIEt-45" vertex="1">
          <mxGeometry y="64" width="138" height="66" as="geometry" />
        </mxCell>
        <mxCell id="8wgsg1sAs0LQzEi6TIEt-53" value="" style="html=1;jettySize=18;whiteSpace=wrap;fontSize=13;strokeColor=#333333;strokeOpacity=100;strokeWidth=0.8;rounded=1;arcSize=24;edgeStyle=orthogonalEdgeStyle;startArrow=none;endArrow=block;endFill=0;exitX=0.5;exitY=-0.009;exitPerimeter=0;entryX=0.5;entryY=1.009;entryPerimeter=0;lucidId=XfgSdLchSI~7;" parent="1" source="8wgsg1sAs0LQzEi6TIEt-17" target="8wgsg1sAs0LQzEi6TIEt-25" edge="1">
          <mxGeometry width="100" height="100" relative="1" as="geometry">
            <Array as="points" />
          </mxGeometry>
        </mxCell>
        <mxCell id="8wgsg1sAs0LQzEi6TIEt-54" value="" style="html=1;jettySize=18;whiteSpace=wrap;fontSize=13;strokeColor=#333333;strokeOpacity=100;strokeWidth=0.8;rounded=1;arcSize=24;edgeStyle=orthogonalEdgeStyle;startArrow=none;endArrow=block;endFill=0;exitX=0.5;exitY=-0.009;exitPerimeter=0;entryX=0.5;entryY=1.009;entryPerimeter=0;lucidId=8fgS0m-eYP1Z;" parent="1" source="8wgsg1sAs0LQzEi6TIEt-21" target="8wgsg1sAs0LQzEi6TIEt-25" edge="1">
          <mxGeometry width="100" height="100" relative="1" as="geometry">
            <Array as="points" />
          </mxGeometry>
        </mxCell>
        <mxCell id="8wgsg1sAs0LQzEi6TIEt-59" value="User_Profile" style="html=1;overflow=block;blockSpacing=1;swimlane;childLayout=stackLayout;horizontal=1;horizontalStack=0;resizeParent=1;resizeParentMax=0;resizeLast=0;collapsible=0;marginBottom=0;swimlaneFillColor=#ffffff;startSize=25;whiteSpace=wrap;fontSize=15.2;fontColor=#333333;fontStyle=1;align=center;spacing=0;strokeColor=#333333;strokeOpacity=100;fillOpacity=100;fillColor=#ffffff;strokeWidth=1.5;" parent="1" vertex="1">
          <mxGeometry x="670" y="370" width="250" height="404" as="geometry" />
        </mxCell>
        <mxCell id="8wgsg1sAs0LQzEi6TIEt-60" value="int discount&lt;br&gt;string category&lt;br&gt;ArrayList ExMonday,ExTuesday&lt;br&gt;ExWednesday,ExThursday.&lt;br&gt;ExFriday,ExSaturday&lt;br style=&quot;border-color: var(--border-color);&quot;&gt;ArrayList FoodMonday,FoodTuesday&lt;br style=&quot;border-color: var(--border-color);&quot;&gt;FoodWednesday,FoodThursday.&lt;br style=&quot;border-color: var(--border-color);&quot;&gt;FoodFriday,FoodSaturday" style="part=1;html=1;resizeHeight=0;strokeColor=none;fillColor=none;verticalAlign=middle;spacingLeft=4;spacingRight=4;overflow=hidden;rotatable=0;points=[[0,0.5],[1,0.5]];portConstraint=eastwest;swimlaneFillColor=#ffffff;strokeOpacity=100;fillOpacity=100;whiteSpace=wrap;fontSize=13;align=center;" parent="8wgsg1sAs0LQzEi6TIEt-59" vertex="1">
          <mxGeometry y="25" width="250" height="145" as="geometry" />
        </mxCell>
        <mxCell id="8wgsg1sAs0LQzEi6TIEt-61" value="" style="line;strokeWidth=1;fillColor=none;align=left;verticalAlign=middle;spacingTop=-1;spacingLeft=3;spacingRight=3;rotatable=0;labelPosition=right;points=[];portConstraint=eastwest;" parent="8wgsg1sAs0LQzEi6TIEt-59" vertex="1">
          <mxGeometry y="170" width="250" height="8" as="geometry" />
        </mxCell>
        <mxCell id="8wgsg1sAs0LQzEi6TIEt-62" value="openList()&lt;br&gt;closeList()&lt;br&gt;follow()&lt;br&gt;connect()&lt;br&gt;DeletePlan()&lt;br style=&quot;border-color: var(--border-color);&quot;&gt;SavePlan()&lt;br&gt;CheckIfPlanExists()&lt;br&gt;CheckForProfile()&lt;br&gt;CreateProfile()&lt;br&gt;UpdateCertificates()&lt;br&gt;CalcDiscount()&lt;br&gt;UpdatePreferences()&lt;br&gt;update_user_category()&lt;br&gt;Setters, Getters" style="part=1;html=1;resizeHeight=0;strokeColor=none;fillColor=none;verticalAlign=middle;spacingLeft=4;spacingRight=4;overflow=hidden;rotatable=0;points=[[0,0.5],[1,0.5]];portConstraint=eastwest;swimlaneFillColor=#ffffff;strokeOpacity=100;fillOpacity=100;whiteSpace=wrap;fontSize=13;align=center;" parent="8wgsg1sAs0LQzEi6TIEt-59" vertex="1">
          <mxGeometry y="178" width="250" height="226" as="geometry" />
        </mxCell>
        <mxCell id="8wgsg1sAs0LQzEi6TIEt-63" value="" style="html=1;jettySize=18;whiteSpace=wrap;fontSize=13;strokeColor=#333333;strokeOpacity=100;strokeWidth=0.8;rounded=1;arcSize=24;edgeStyle=orthogonalEdgeStyle;startArrow=none;endArrow=none;exitX=0.5;exitY=-0.009;exitPerimeter=0;entryX=0.5;entryY=1.009;entryPerimeter=0;lucidId=.jgSkQ.senA_;" parent="1" source="8wgsg1sAs0LQzEi6TIEt-59" target="8wgsg1sAs0LQzEi6TIEt-9" edge="1">
          <mxGeometry width="100" height="100" relative="1" as="geometry">
            <Array as="points" />
          </mxGeometry>
        </mxCell>
        <mxCell id="8wgsg1sAs0LQzEi6TIEt-64" value="" style="html=1;jettySize=18;whiteSpace=wrap;fontSize=13;strokeColor=#333333;strokeOpacity=100;strokeWidth=0.8;rounded=1;arcSize=24;edgeStyle=orthogonalEdgeStyle;startArrow=none;endArrow=diamond;endFill=0;endSize=16;exitX=-0.004;exitY=0.5;exitPerimeter=0;entryX=1;entryY=0.5;lucidId=uogSHBaDzeLX;entryDx=0;entryDy=0;" parent="1" source="8wgsg1sAs0LQzEi6TIEt-37" target="Z0ypos2vbF20BTmYO5op-2" edge="1">
          <mxGeometry width="100" height="100" relative="1" as="geometry">
            <Array as="points">
              <mxPoint x="1349" y="77" />
              <mxPoint x="1304" y="77" />
              <mxPoint x="1304" y="59" />
              <mxPoint x="1290" y="59" />
            </Array>
          </mxGeometry>
        </mxCell>
        <mxCell id="8wgsg1sAs0LQzEi6TIEt-65" value="1" style="html=1;overflow=block;blockSpacing=1;whiteSpace=wrap;fontSize=18.5;fontColor=#333333;align=center;spacing=3.8;strokeOpacity=0;fillOpacity=0;fillColor=#ffffff;strokeWidth=1.5;lucidId=PogSJ..B-1MG;" parent="1" vertex="1">
          <mxGeometry x="1192" y="23" width="70" height="20" as="geometry" />
        </mxCell>
        <mxCell id="8wgsg1sAs0LQzEi6TIEt-66" value="1" style="html=1;overflow=block;blockSpacing=1;whiteSpace=wrap;fontSize=18.5;fontColor=#333333;align=left;spacing=3.8;verticalAlign=top;strokeColor=none;fillOpacity=0;fillColor=#ffffff;strokeWidth=0;lucidId=TogSFdme52LJ;" parent="1" vertex="1">
          <mxGeometry x="1350" y="48" width="15" height="24" as="geometry" />
        </mxCell>
        <mxCell id="8wgsg1sAs0LQzEi6TIEt-67" value="" style="html=1;jettySize=18;whiteSpace=wrap;fontSize=13;strokeColor=#333333;strokeOpacity=100;strokeWidth=0.8;rounded=1;arcSize=24;edgeStyle=orthogonalEdgeStyle;startArrow=none;endArrow=diamond;endFill=0;endSize=16;exitX=0.458;exitY=-0.016;exitPerimeter=0;entryX=0.218;entryY=1.036;lucidId=kpgSvHBK-gC9;entryDx=0;entryDy=0;entryPerimeter=0;exitDx=0;exitDy=0;" parent="1" source="8wgsg1sAs0LQzEi6TIEt-33" target="Z0ypos2vbF20BTmYO5op-4" edge="1">
          <mxGeometry width="100" height="100" relative="1" as="geometry">
            <Array as="points">
              <mxPoint x="1129" y="242" />
              <mxPoint x="1110" y="242" />
              <mxPoint x="1110" y="153" />
            </Array>
          </mxGeometry>
        </mxCell>
        <mxCell id="8wgsg1sAs0LQzEi6TIEt-68" value="1" style="html=1;overflow=block;blockSpacing=1;whiteSpace=wrap;fontSize=18.5;fontColor=#333333;align=center;spacing=3.8;strokeOpacity=0;fillOpacity=0;fillColor=#ffffff;strokeWidth=1.5;lucidId=mpgSFt8MuSFL;" parent="1" vertex="1">
          <mxGeometry x="1095.5" y="153" width="89" height="34" as="geometry" />
        </mxCell>
        <mxCell id="8wgsg1sAs0LQzEi6TIEt-69" value="1" style="html=1;overflow=block;blockSpacing=1;whiteSpace=wrap;fontSize=18.5;fontColor=#333333;align=left;spacing=3.8;verticalAlign=top;strokeColor=none;fillOpacity=0;fillColor=#ffffff;strokeWidth=0;lucidId=spgSZ6_VR8ri;" parent="1" vertex="1">
          <mxGeometry x="1103" y="299" width="15" height="24" as="geometry" />
        </mxCell>
        <mxCell id="8wgsg1sAs0LQzEi6TIEt-70" value="" style="html=1;jettySize=18;whiteSpace=wrap;fontSize=13;strokeColor=#333333;strokeOpacity=100;strokeWidth=0.8;rounded=1;arcSize=24;edgeStyle=orthogonalEdgeStyle;startArrow=none;endArrow=diamond;endFill=1;endSize=16;exitX=0.5;exitY=-0.009;exitPerimeter=0;entryX=0.5;entryY=1.009;entryPerimeter=0;lucidId=BpgS~rLMRRLF;" parent="1" source="8wgsg1sAs0LQzEi6TIEt-25" target="8wgsg1sAs0LQzEi6TIEt-37" edge="1">
          <mxGeometry width="100" height="100" relative="1" as="geometry">
            <Array as="points" />
          </mxGeometry>
        </mxCell>
        <mxCell id="8wgsg1sAs0LQzEi6TIEt-71" value="1..." style="html=1;overflow=block;blockSpacing=1;whiteSpace=wrap;fontSize=18.5;fontColor=#333333;align=left;spacing=3.8;verticalAlign=top;strokeColor=none;fillOpacity=0;fillColor=#ffffff;strokeWidth=0;lucidId=EpgSSZsvw1G5;" parent="1" vertex="1">
          <mxGeometry x="1510" y="296" width="15" height="24" as="geometry" />
        </mxCell>
        <mxCell id="8wgsg1sAs0LQzEi6TIEt-72" value="" style="html=1;overflow=block;blockSpacing=1;whiteSpace=wrap;fontSize=13;align=left;spacing=3.8;verticalAlign=top;strokeColor=none;fillOpacity=0;fillColor=#ffffff;strokeWidth=0;lucidId=LpgSQw~4S9WQ;" parent="1" vertex="1">
          <mxGeometry x="1510" y="306" width="15" height="24" as="geometry" />
        </mxCell>
        <mxCell id="8wgsg1sAs0LQzEi6TIEt-73" value="1" style="html=1;overflow=block;blockSpacing=1;whiteSpace=wrap;fontSize=18.5;fontColor=#333333;align=left;spacing=3.8;verticalAlign=top;strokeColor=none;fillOpacity=0;fillColor=#ffffff;strokeWidth=0;lucidId=uqgSkAblR1Rg;" parent="1" vertex="1">
          <mxGeometry x="1470" y="259" width="15" height="24" as="geometry" />
        </mxCell>
        <mxCell id="8wgsg1sAs0LQzEi6TIEt-74" value="1..." style="html=1;overflow=block;blockSpacing=1;whiteSpace=wrap;fontSize=18.5;fontColor=#333333;align=left;spacing=3.8;verticalAlign=top;strokeColor=none;fillOpacity=0;fillColor=#ffffff;strokeWidth=0;lucidId=1qgSiQTv402X;" parent="1" vertex="1">
          <mxGeometry x="1165" y="606" width="15" height="24" as="geometry" />
        </mxCell>
        <mxCell id="8wgsg1sAs0LQzEi6TIEt-75" value="1" style="html=1;overflow=block;blockSpacing=1;whiteSpace=wrap;fontSize=18.5;fontColor=#333333;align=left;spacing=3.8;verticalAlign=top;strokeColor=none;fillOpacity=0;fillColor=#ffffff;strokeWidth=0;lucidId=3qgSvUHH_4bW;" parent="1" vertex="1">
          <mxGeometry x="1103" y="564" width="15" height="24" as="geometry" />
        </mxCell>
        <mxCell id="8wgsg1sAs0LQzEi6TIEt-76" value="" style="html=1;jettySize=18;whiteSpace=wrap;fontSize=13;strokeColor=#333333;strokeOpacity=100;strokeWidth=0.8;rounded=1;arcSize=24;edgeStyle=orthogonalEdgeStyle;startArrow=none;endArrow=diamond;endFill=1;endSize=16;exitX=0.5;exitY=-0.009;exitPerimeter=0;entryX=0.5;entryY=1.009;entryPerimeter=0;lucidId=5qgSH6KHg204;" parent="1" source="8wgsg1sAs0LQzEi6TIEt-29" target="8wgsg1sAs0LQzEi6TIEt-33" edge="1">
          <mxGeometry width="100" height="100" relative="1" as="geometry">
            <Array as="points" />
          </mxGeometry>
        </mxCell>
        <mxCell id="8wgsg1sAs0LQzEi6TIEt-83" value="" style="html=1;jettySize=18;whiteSpace=wrap;fontSize=13;strokeColor=#333333;strokeOpacity=100;strokeWidth=0.8;rounded=1;arcSize=24;edgeStyle=orthogonalEdgeStyle;startArrow=none;endArrow=diamond;endFill=1;endSize=16;entryX=0.5;entryY=1.009;entryPerimeter=0;lucidId=otgSI4RJ-BR.;exitX=0.567;exitY=-0.025;exitDx=0;exitDy=0;exitPerimeter=0;" parent="1" source="r8SkLgFx0dFkhAh_9Jzo-31" target="8wgsg1sAs0LQzEi6TIEt-45" edge="1">
          <mxGeometry width="100" height="100" relative="1" as="geometry">
            <Array as="points" />
            <mxPoint x="537" y="500" as="sourcePoint" />
          </mxGeometry>
        </mxCell>
        <mxCell id="8wgsg1sAs0LQzEi6TIEt-84" value="" style="html=1;jettySize=18;whiteSpace=wrap;fontSize=13;strokeColor=#333333;strokeOpacity=100;strokeWidth=0.8;rounded=1;arcSize=24;edgeStyle=orthogonalEdgeStyle;startArrow=none;endArrow=diamond;endFill=1;endSize=16;exitX=0.5;exitY=-0.009;exitPerimeter=0;entryX=-0.006;entryY=0.5;entryPerimeter=0;lucidId=ytgS5dpMsZgE;" parent="1" source="8wgsg1sAs0LQzEi6TIEt-45" target="8wgsg1sAs0LQzEi6TIEt-9" edge="1">
          <mxGeometry width="100" height="100" relative="1" as="geometry">
            <Array as="points" />
          </mxGeometry>
        </mxCell>
        <mxCell id="8wgsg1sAs0LQzEi6TIEt-85" value="1" style="html=1;overflow=block;blockSpacing=1;whiteSpace=wrap;fontSize=18.5;fontColor=#333333;align=left;spacing=3.8;verticalAlign=top;strokeColor=none;fillOpacity=0;fillColor=#ffffff;strokeWidth=0;lucidId=ItgSSfaFpipw;" parent="1" vertex="1">
          <mxGeometry x="540" y="310" width="15" height="24" as="geometry" />
        </mxCell>
        <mxCell id="8wgsg1sAs0LQzEi6TIEt-86" value="1" style="html=1;overflow=block;blockSpacing=1;whiteSpace=wrap;fontSize=18.5;fontColor=#333333;align=left;spacing=3.8;verticalAlign=top;strokeColor=none;fillOpacity=0;fillColor=#ffffff;strokeWidth=0;lucidId=JtgS9ZKqjcnf;" parent="1" vertex="1">
          <mxGeometry x="685" y="153" width="15" height="24" as="geometry" />
        </mxCell>
        <mxCell id="8wgsg1sAs0LQzEi6TIEt-87" value="0..." style="html=1;overflow=block;blockSpacing=1;whiteSpace=wrap;fontSize=18.5;fontColor=#333333;align=left;spacing=3.8;verticalAlign=top;strokeColor=none;fillOpacity=0;fillColor=#ffffff;strokeWidth=0;lucidId=OtgStgG67T_2;" parent="1" vertex="1">
          <mxGeometry x="615" y="169" width="15" height="24" as="geometry" />
        </mxCell>
        <mxCell id="8wgsg1sAs0LQzEi6TIEt-90" value="Calorie_Counter" style="html=1;overflow=block;blockSpacing=1;swimlane;childLayout=stackLayout;horizontal=1;horizontalStack=0;resizeParent=1;resizeParentMax=0;resizeLast=0;collapsible=0;marginBottom=0;swimlaneFillColor=#ffffff;startSize=25;whiteSpace=wrap;fontSize=15.2;fontColor=#333333;fontStyle=1;align=center;spacing=0;strokeColor=#333333;strokeOpacity=100;fillOpacity=100;fillColor=#ffffff;strokeWidth=1.5;" parent="1" vertex="1">
          <mxGeometry x="1118" y="982" width="300" height="140" as="geometry" />
        </mxCell>
        <mxCell id="8wgsg1sAs0LQzEi6TIEt-91" value="" style="part=1;html=1;resizeHeight=0;strokeColor=none;fillColor=none;verticalAlign=middle;spacingLeft=4;spacingRight=4;overflow=hidden;rotatable=0;points=[[0,0.5],[1,0.5]];portConstraint=eastwest;swimlaneFillColor=#ffffff;strokeOpacity=100;fillOpacity=100;whiteSpace=wrap;fontSize=13;align=center;" parent="8wgsg1sAs0LQzEi6TIEt-90" vertex="1">
          <mxGeometry y="25" width="300" height="39" as="geometry" />
        </mxCell>
        <mxCell id="8wgsg1sAs0LQzEi6TIEt-92" value="" style="line;strokeWidth=1;fillColor=none;align=left;verticalAlign=middle;spacingTop=-1;spacingLeft=3;spacingRight=3;rotatable=0;labelPosition=right;points=[];portConstraint=eastwest;" parent="8wgsg1sAs0LQzEi6TIEt-90" vertex="1">
          <mxGeometry y="64" width="300" height="8" as="geometry" />
        </mxCell>
        <mxCell id="8wgsg1sAs0LQzEi6TIEt-93" value="CounterStartUp(FoodList,DrinkList,ExerciseList)&lt;br&gt;ConsumptionCalc(FoodList,DrinkList)&lt;br&gt;BurntCalc(ExerciseList)" style="part=1;html=1;resizeHeight=0;strokeColor=none;fillColor=none;verticalAlign=middle;spacingLeft=4;spacingRight=4;overflow=hidden;rotatable=0;points=[[0,0.5],[1,0.5]];portConstraint=eastwest;swimlaneFillColor=#ffffff;strokeOpacity=100;fillOpacity=100;whiteSpace=wrap;fontSize=13;align=center;" parent="8wgsg1sAs0LQzEi6TIEt-90" vertex="1">
          <mxGeometry y="72" width="300" height="68" as="geometry" />
        </mxCell>
        <mxCell id="8wgsg1sAs0LQzEi6TIEt-95" value="Burnt_Count" style="html=1;overflow=block;blockSpacing=1;swimlane;childLayout=stackLayout;horizontal=1;horizontalStack=0;resizeParent=1;resizeParentMax=0;resizeLast=0;collapsible=0;marginBottom=0;swimlaneFillColor=#ffffff;startSize=25;whiteSpace=wrap;fontSize=15.2;fontColor=#333333;fontStyle=1;align=center;spacing=0;strokeColor=#333333;strokeOpacity=100;fillOpacity=100;fillColor=#ffffff;strokeWidth=1.5;" parent="1" vertex="1">
          <mxGeometry x="1061" y="790" width="240" height="160" as="geometry" />
        </mxCell>
        <mxCell id="8wgsg1sAs0LQzEi6TIEt-96" value="int total_calories" style="part=1;html=1;resizeHeight=0;strokeColor=none;fillColor=none;verticalAlign=middle;spacingLeft=4;spacingRight=4;overflow=hidden;rotatable=0;points=[[0,0.5],[1,0.5]];portConstraint=eastwest;swimlaneFillColor=#ffffff;strokeOpacity=100;fillOpacity=100;whiteSpace=wrap;fontSize=13;align=center;" parent="8wgsg1sAs0LQzEi6TIEt-95" vertex="1">
          <mxGeometry y="25" width="240" height="39" as="geometry" />
        </mxCell>
        <mxCell id="8wgsg1sAs0LQzEi6TIEt-97" value="" style="line;strokeWidth=1;fillColor=none;align=left;verticalAlign=middle;spacingTop=-1;spacingLeft=3;spacingRight=3;rotatable=0;labelPosition=right;points=[];portConstraint=eastwest;" parent="8wgsg1sAs0LQzEi6TIEt-95" vertex="1">
          <mxGeometry y="64" width="240" height="8" as="geometry" />
        </mxCell>
        <mxCell id="8wgsg1sAs0LQzEi6TIEt-98" value="Count_Start(ExerciseList)&lt;br&gt;ShowExerciseList(ExerciseList)&lt;br&gt;SearchExercise(ExerciseList,&lt;br&gt;count,item,found)&lt;br&gt;ShowTotal(count)" style="part=1;html=1;resizeHeight=0;strokeColor=none;fillColor=none;verticalAlign=middle;spacingLeft=4;spacingRight=4;overflow=hidden;rotatable=0;points=[[0,0.5],[1,0.5]];portConstraint=eastwest;swimlaneFillColor=#ffffff;strokeOpacity=100;fillOpacity=100;whiteSpace=wrap;fontSize=13;align=center;" parent="8wgsg1sAs0LQzEi6TIEt-95" vertex="1">
          <mxGeometry y="72" width="240" height="88" as="geometry" />
        </mxCell>
        <mxCell id="8wgsg1sAs0LQzEi6TIEt-99" value="Consume_Count" style="html=1;overflow=block;blockSpacing=1;swimlane;childLayout=stackLayout;horizontal=1;horizontalStack=0;resizeParent=1;resizeParentMax=0;resizeLast=0;collapsible=0;marginBottom=0;swimlaneFillColor=#ffffff;startSize=25;whiteSpace=wrap;fontSize=15.2;fontColor=#333333;fontStyle=1;align=center;spacing=0;strokeColor=#333333;strokeOpacity=100;fillOpacity=100;fillColor=#ffffff;strokeWidth=1.5;" parent="1" vertex="1">
          <mxGeometry x="1370" y="780" width="270" height="160" as="geometry" />
        </mxCell>
        <mxCell id="8wgsg1sAs0LQzEi6TIEt-100" value="int total_calories" style="part=1;html=1;resizeHeight=0;strokeColor=none;fillColor=none;verticalAlign=middle;spacingLeft=4;spacingRight=4;overflow=hidden;rotatable=0;points=[[0,0.5],[1,0.5]];portConstraint=eastwest;swimlaneFillColor=#ffffff;strokeOpacity=100;fillOpacity=100;whiteSpace=wrap;fontSize=13;align=center;" parent="8wgsg1sAs0LQzEi6TIEt-99" vertex="1">
          <mxGeometry y="25" width="270" height="48" as="geometry" />
        </mxCell>
        <mxCell id="8wgsg1sAs0LQzEi6TIEt-101" value="" style="line;strokeWidth=1;fillColor=none;align=left;verticalAlign=middle;spacingTop=-1;spacingLeft=3;spacingRight=3;rotatable=0;labelPosition=right;points=[];portConstraint=eastwest;" parent="8wgsg1sAs0LQzEi6TIEt-99" vertex="1">
          <mxGeometry y="73" width="270" height="8" as="geometry" />
        </mxCell>
        <mxCell id="8wgsg1sAs0LQzEi6TIEt-102" value="CountStart(FoodList,DrinkList)&lt;br&gt;ShowFoodAndDrinksList(FoodList,DrinkList)&lt;br&gt;SearchFoodAndDrinks(FoodList,DrinkList,&lt;br&gt;found,item,count)&lt;br&gt;ShowTotal(count)" style="part=1;html=1;resizeHeight=0;strokeColor=none;fillColor=none;verticalAlign=middle;spacingLeft=4;spacingRight=4;overflow=hidden;rotatable=0;points=[[0,0.5],[1,0.5]];portConstraint=eastwest;swimlaneFillColor=#ffffff;strokeOpacity=100;fillOpacity=100;whiteSpace=wrap;fontSize=13;align=center;" parent="8wgsg1sAs0LQzEi6TIEt-99" vertex="1">
          <mxGeometry y="81" width="270" height="79" as="geometry" />
        </mxCell>
        <mxCell id="8wgsg1sAs0LQzEi6TIEt-103" value="" style="html=1;jettySize=18;whiteSpace=wrap;fontSize=13;strokeColor=#333333;strokeOpacity=100;strokeWidth=0.8;rounded=1;arcSize=24;edgeStyle=orthogonalEdgeStyle;startArrow=none;endArrow=none;exitX=0.5;exitY=-0.007;exitPerimeter=0;entryX=0.533;entryY=1.009;entryPerimeter=0;lucidId=GwgS3QGOghmw;" parent="1" source="8wgsg1sAs0LQzEi6TIEt-95" target="8wgsg1sAs0LQzEi6TIEt-29" edge="1">
          <mxGeometry width="100" height="100" relative="1" as="geometry">
            <Array as="points" />
          </mxGeometry>
        </mxCell>
        <mxCell id="8wgsg1sAs0LQzEi6TIEt-104" value="" style="html=1;jettySize=18;whiteSpace=wrap;fontSize=13;strokeColor=#333333;strokeOpacity=100;strokeWidth=0.8;rounded=1;arcSize=24;edgeStyle=orthogonalEdgeStyle;startArrow=none;endArrow=none;exitX=0.5;exitY=1.007;exitPerimeter=0;entryX=0.5;entryY=-0.007;entryPerimeter=0;lucidId=IwgSaPp0cr3r;" parent="1" source="8wgsg1sAs0LQzEi6TIEt-95" target="8wgsg1sAs0LQzEi6TIEt-90" edge="1">
          <mxGeometry width="100" height="100" relative="1" as="geometry">
            <Array as="points" />
          </mxGeometry>
        </mxCell>
        <mxCell id="8wgsg1sAs0LQzEi6TIEt-105" value="" style="html=1;jettySize=18;whiteSpace=wrap;fontSize=13;strokeColor=#333333;strokeOpacity=100;strokeWidth=0.8;rounded=1;arcSize=24;edgeStyle=orthogonalEdgeStyle;startArrow=none;endArrow=none;exitX=0.543;exitY=1.003;exitPerimeter=0;entryX=1.005;entryY=0.5;entryPerimeter=0;lucidId=LwgS~2q8pYt.;exitDx=0;exitDy=0;" parent="1" source="8wgsg1sAs0LQzEi6TIEt-102" target="8wgsg1sAs0LQzEi6TIEt-90" edge="1">
          <mxGeometry width="100" height="100" relative="1" as="geometry">
            <Array as="points" />
          </mxGeometry>
        </mxCell>
        <mxCell id="8wgsg1sAs0LQzEi6TIEt-106" value="" style="html=1;jettySize=18;whiteSpace=wrap;fontSize=13;strokeColor=#333333;strokeOpacity=100;strokeWidth=0.8;rounded=1;arcSize=24;edgeStyle=orthogonalEdgeStyle;startArrow=none;endArrow=none;exitX=0.5;exitY=-0.006;exitPerimeter=0;entryX=0.5;entryY=1.009;entryPerimeter=0;lucidId=NwgSU9HIO~-.;" parent="1" source="8wgsg1sAs0LQzEi6TIEt-99" target="8wgsg1sAs0LQzEi6TIEt-17" edge="1">
          <mxGeometry width="100" height="100" relative="1" as="geometry">
            <Array as="points" />
          </mxGeometry>
        </mxCell>
        <mxCell id="8wgsg1sAs0LQzEi6TIEt-107" value="" style="html=1;jettySize=18;whiteSpace=wrap;fontSize=13;strokeColor=#333333;strokeOpacity=100;strokeWidth=0.8;rounded=1;arcSize=24;edgeStyle=orthogonalEdgeStyle;startArrow=none;endArrow=none;exitX=0.5;exitY=-0.006;exitPerimeter=0;entryX=0.5;entryY=1.009;entryPerimeter=0;lucidId=CygSlEcKQ958;" parent="1" source="8wgsg1sAs0LQzEi6TIEt-99" target="8wgsg1sAs0LQzEi6TIEt-21" edge="1">
          <mxGeometry width="100" height="100" relative="1" as="geometry">
            <Array as="points" />
          </mxGeometry>
        </mxCell>
        <mxCell id="8wgsg1sAs0LQzEi6TIEt-116" value="" style="html=1;jettySize=18;whiteSpace=wrap;fontSize=13;strokeColor=#333333;strokeOpacity=100;strokeWidth=0.8;rounded=1;arcSize=24;edgeStyle=orthogonalEdgeStyle;startArrow=none;endArrow=diamond;endFill=1;endSize=16;entryX=0.076;entryY=0.003;lucidId=otgSI4RJ-BR.;entryDx=0;entryDy=0;exitX=1.01;exitY=0.2;exitDx=0;exitDy=0;entryPerimeter=0;exitPerimeter=0;" parent="1" source="r8SkLgFx0dFkhAh_9Jzo-2" target="8wgsg1sAs0LQzEi6TIEt-9" edge="1">
          <mxGeometry width="100" height="100" relative="1" as="geometry">
            <Array as="points" />
            <mxPoint x="380" y="68.5" as="sourcePoint" />
            <mxPoint x="400" y="26" as="targetPoint" />
          </mxGeometry>
        </mxCell>
        <mxCell id="8wgsg1sAs0LQzEi6TIEt-118" value="1" style="html=1;overflow=block;blockSpacing=1;whiteSpace=wrap;fontSize=18.5;fontColor=#333333;align=left;spacing=3.8;verticalAlign=top;strokeColor=none;fillOpacity=0;fillColor=#ffffff;strokeWidth=0;lucidId=JtgS9ZKqjcnf;" parent="1" vertex="1">
          <mxGeometry x="685" y="19" width="15" height="24" as="geometry" />
        </mxCell>
        <mxCell id="8wgsg1sAs0LQzEi6TIEt-119" value="0..." style="html=1;overflow=block;blockSpacing=1;whiteSpace=wrap;fontSize=18.5;fontColor=#333333;align=left;spacing=3.8;verticalAlign=top;strokeColor=none;fillOpacity=0;fillColor=#ffffff;strokeWidth=0;lucidId=OtgStgG67T_2;" parent="1" vertex="1">
          <mxGeometry x="315" y="46" width="15" height="24" as="geometry" />
        </mxCell>
        <mxCell id="EErHntymPw57FaWNa1FB-15" value="Mini_Workout" style="html=1;overflow=block;blockSpacing=1;swimlane;childLayout=stackLayout;horizontal=1;horizontalStack=0;resizeParent=1;resizeParentMax=0;resizeLast=0;collapsible=0;marginBottom=0;swimlaneFillColor=#ffffff;startSize=25;whiteSpace=wrap;fontSize=15.2;fontColor=#333333;fontStyle=1;align=center;spacing=0;strokeColor=#333333;strokeOpacity=100;fillOpacity=100;fillColor=#ffffff;strokeWidth=1.5;" parent="1" vertex="1">
          <mxGeometry x="590" y="1070" width="170" height="110" as="geometry" />
        </mxCell>
        <mxCell id="EErHntymPw57FaWNa1FB-16" value="srting exercises" style="part=1;html=1;resizeHeight=0;strokeColor=none;fillColor=none;verticalAlign=middle;spacingLeft=4;spacingRight=4;overflow=hidden;rotatable=0;points=[[0,0.5],[1,0.5]];portConstraint=eastwest;swimlaneFillColor=#ffffff;strokeOpacity=100;fillOpacity=100;whiteSpace=wrap;fontSize=13;align=center;" parent="EErHntymPw57FaWNa1FB-15" vertex="1">
          <mxGeometry y="25" width="170" height="31" as="geometry" />
        </mxCell>
        <mxCell id="EErHntymPw57FaWNa1FB-17" value="" style="line;strokeWidth=1;fillColor=none;align=left;verticalAlign=middle;spacingTop=-1;spacingLeft=3;spacingRight=3;rotatable=0;labelPosition=right;points=[];portConstraint=eastwest;" parent="EErHntymPw57FaWNa1FB-15" vertex="1">
          <mxGeometry y="56" width="170" height="8" as="geometry" />
        </mxCell>
        <mxCell id="EErHntymPw57FaWNa1FB-18" value="show_mini_workout()&lt;br&gt;" style="part=1;html=1;resizeHeight=0;strokeColor=none;fillColor=none;verticalAlign=middle;spacingLeft=4;spacingRight=4;overflow=hidden;rotatable=0;points=[[0,0.5],[1,0.5]];portConstraint=eastwest;swimlaneFillColor=#ffffff;strokeOpacity=100;fillOpacity=100;whiteSpace=wrap;fontSize=13;align=center;" parent="EErHntymPw57FaWNa1FB-15" vertex="1">
          <mxGeometry y="64" width="170" height="46" as="geometry" />
        </mxCell>
        <mxCell id="EErHntymPw57FaWNa1FB-21" value="" style="html=1;jettySize=18;whiteSpace=wrap;fontSize=13;strokeColor=#333333;strokeOpacity=100;strokeWidth=0.8;rounded=1;arcSize=24;edgeStyle=orthogonalEdgeStyle;startArrow=none;endArrow=none;exitX=1;exitY=0.5;lucidId=dvgSciNc5Q1T;exitDx=0;exitDy=0;entryX=0.361;entryY=0.995;entryDx=0;entryDy=0;entryPerimeter=0;" parent="1" source="8wgsg1sAs0LQzEi6TIEt-42" target="8wgsg1sAs0LQzEi6TIEt-62" edge="1">
          <mxGeometry width="100" height="100" relative="1" as="geometry">
            <Array as="points">
              <mxPoint x="460" y="1051" />
              <mxPoint x="460" y="970" />
              <mxPoint x="760" y="970" />
            </Array>
            <mxPoint x="952" y="773" as="sourcePoint" />
            <mxPoint x="760" y="650" as="targetPoint" />
          </mxGeometry>
        </mxCell>
        <mxCell id="EErHntymPw57FaWNa1FB-23" value="" style="html=1;jettySize=18;whiteSpace=wrap;fontSize=13;strokeColor=#333333;strokeOpacity=100;strokeWidth=0.8;rounded=1;arcSize=24;edgeStyle=orthogonalEdgeStyle;startArrow=none;endArrow=diamond;endFill=0;endSize=16;exitX=-0.006;exitY=0.928;exitPerimeter=0;entryX=1;entryY=0.5;lucidId=kpgSvHBK-gC9;entryDx=0;entryDy=0;exitDx=0;exitDy=0;" parent="1" source="EErHntymPw57FaWNa1FB-16" target="8wgsg1sAs0LQzEi6TIEt-44" edge="1">
          <mxGeometry width="100" height="100" relative="1" as="geometry">
            <Array as="points" />
            <mxPoint x="1052" y="956" as="sourcePoint" />
            <mxPoint x="909" y="930" as="targetPoint" />
          </mxGeometry>
        </mxCell>
        <mxCell id="EErHntymPw57FaWNa1FB-24" value="1" style="html=1;overflow=block;blockSpacing=1;whiteSpace=wrap;fontSize=18.5;fontColor=#333333;align=left;spacing=3.8;verticalAlign=top;strokeColor=none;fillOpacity=0;fillColor=#ffffff;strokeWidth=0;lucidId=spgSZ6_VR8ri;" parent="1" vertex="1">
          <mxGeometry x="567" y="1100" width="15" height="24" as="geometry" />
        </mxCell>
        <mxCell id="EErHntymPw57FaWNa1FB-25" value="1" style="html=1;overflow=block;blockSpacing=1;whiteSpace=wrap;fontSize=18.5;fontColor=#333333;align=left;spacing=3.8;verticalAlign=top;strokeColor=none;fillOpacity=0;fillColor=#ffffff;strokeWidth=0;lucidId=spgSZ6_VR8ri;" parent="1" vertex="1">
          <mxGeometry x="270" y="1090" width="15" height="24" as="geometry" />
        </mxCell>
        <mxCell id="EErHntymPw57FaWNa1FB-27" value="" style="html=1;jettySize=18;whiteSpace=wrap;fontSize=13;strokeColor=#333333;strokeOpacity=100;strokeWidth=0.8;rounded=1;arcSize=24;edgeStyle=orthogonalEdgeStyle;startArrow=none;endArrow=diamond;endFill=1;endSize=16;exitX=0.5;exitY=0;entryX=0;entryY=0.5;lucidId=5qgSH6KHg204;exitDx=0;exitDy=0;entryDx=0;entryDy=0;" parent="1" source="EErHntymPw57FaWNa1FB-15" target="8wgsg1sAs0LQzEi6TIEt-30" edge="1">
          <mxGeometry width="100" height="100" relative="1" as="geometry">
            <Array as="points">
              <mxPoint x="670" y="1070" />
              <mxPoint x="670" y="1022" />
              <mxPoint x="1010" y="1022" />
              <mxPoint x="1010" y="670" />
              <mxPoint x="1067" y="670" />
            </Array>
            <mxPoint x="970" y="829.5" as="sourcePoint" />
            <mxPoint x="975" y="747.5" as="targetPoint" />
          </mxGeometry>
        </mxCell>
        <mxCell id="EErHntymPw57FaWNa1FB-28" value="1" style="html=1;overflow=block;blockSpacing=1;whiteSpace=wrap;fontSize=18.5;fontColor=#333333;align=left;spacing=3.8;verticalAlign=top;strokeColor=none;fillOpacity=0;fillColor=#ffffff;strokeWidth=0;lucidId=3qgSvUHH_4bW;" parent="1" vertex="1">
          <mxGeometry x="1046" y="640" width="15" height="24" as="geometry" />
        </mxCell>
        <mxCell id="EErHntymPw57FaWNa1FB-29" value="1..." style="html=1;overflow=block;blockSpacing=1;whiteSpace=wrap;fontSize=18.5;fontColor=#333333;align=left;spacing=3.8;verticalAlign=top;strokeColor=none;fillOpacity=0;fillColor=#ffffff;strokeWidth=0;lucidId=1qgSiQTv402X;" parent="1" vertex="1">
          <mxGeometry x="600" y="1040" width="15" height="24" as="geometry" />
        </mxCell>
        <mxCell id="EErHntymPw57FaWNa1FB-34" value="" style="html=1;jettySize=18;whiteSpace=wrap;fontSize=13;strokeColor=#333333;strokeOpacity=100;strokeWidth=0.8;rounded=1;arcSize=24;edgeStyle=orthogonalEdgeStyle;startArrow=none;endArrow=diamond;endFill=1;endSize=16;entryX=0.076;entryY=0.003;lucidId=otgSI4RJ-BR.;entryDx=0;entryDy=0;entryPerimeter=0;exitX=0.574;exitY=-0.002;exitDx=0;exitDy=0;exitPerimeter=0;" parent="1" source="EErHntymPw57FaWNa1FB-35" edge="1">
          <mxGeometry width="100" height="100" relative="1" as="geometry">
            <Array as="points">
              <mxPoint x="420" y="237" />
              <mxPoint x="420" y="130" />
              <mxPoint x="650" y="130" />
              <mxPoint x="650" y="91" />
            </Array>
            <mxPoint x="420" y="214" as="sourcePoint" />
            <mxPoint x="750" y="91" as="targetPoint" />
          </mxGeometry>
        </mxCell>
        <mxCell id="EErHntymPw57FaWNa1FB-35" value="Shopping_Cart" style="html=1;overflow=block;blockSpacing=1;swimlane;childLayout=stackLayout;horizontal=1;horizontalStack=0;resizeParent=1;resizeParentMax=0;resizeLast=0;collapsible=0;marginBottom=0;swimlaneFillColor=#ffffff;startSize=25;whiteSpace=wrap;fontSize=15.2;fontColor=#333333;fontStyle=1;align=center;spacing=0;strokeColor=#333333;strokeOpacity=100;fillOpacity=100;fillColor=#ffffff;strokeWidth=1.5;" parent="1" vertex="1">
          <mxGeometry x="315" y="240" width="138" height="110" as="geometry" />
        </mxCell>
        <mxCell id="EErHntymPw57FaWNa1FB-36" value="" style="part=1;html=1;resizeHeight=0;strokeColor=none;fillColor=none;verticalAlign=middle;spacingLeft=4;spacingRight=4;overflow=hidden;rotatable=0;points=[[0,0.5],[1,0.5]];portConstraint=eastwest;swimlaneFillColor=#ffffff;strokeOpacity=100;fillOpacity=100;whiteSpace=wrap;fontSize=13;align=center;" parent="EErHntymPw57FaWNa1FB-35" vertex="1">
          <mxGeometry y="25" width="138" height="31" as="geometry" />
        </mxCell>
        <mxCell id="EErHntymPw57FaWNa1FB-37" value="" style="line;strokeWidth=1;fillColor=none;align=left;verticalAlign=middle;spacingTop=-1;spacingLeft=3;spacingRight=3;rotatable=0;labelPosition=right;points=[];portConstraint=eastwest;" parent="EErHntymPw57FaWNa1FB-35" vertex="1">
          <mxGeometry y="56" width="138" height="8" as="geometry" />
        </mxCell>
        <mxCell id="EErHntymPw57FaWNa1FB-38" value="SendUpdatedCart()&lt;br&gt;" style="part=1;html=1;resizeHeight=0;strokeColor=none;fillColor=none;verticalAlign=middle;spacingLeft=4;spacingRight=4;overflow=hidden;rotatable=0;points=[[0,0.5],[1,0.5]];portConstraint=eastwest;swimlaneFillColor=#ffffff;strokeOpacity=100;fillOpacity=100;whiteSpace=wrap;fontSize=13;align=center;" parent="EErHntymPw57FaWNa1FB-35" vertex="1">
          <mxGeometry y="64" width="138" height="46" as="geometry" />
        </mxCell>
        <mxCell id="Z0ypos2vbF20BTmYO5op-1" value="Plan" style="html=1;overflow=block;blockSpacing=1;swimlane;childLayout=stackLayout;horizontal=1;horizontalStack=0;resizeParent=1;resizeParentMax=0;resizeLast=0;collapsible=0;marginBottom=0;swimlaneFillColor=#ffffff;startSize=25;whiteSpace=wrap;fontSize=15.2;fontColor=#333333;fontStyle=1;align=center;spacing=0;strokeColor=#333333;strokeOpacity=100;fillOpacity=100;fillColor=#ffffff;strokeWidth=1.5;" parent="1" vertex="1">
          <mxGeometry x="1062.5" y="10" width="190" height="140" as="geometry" />
        </mxCell>
        <mxCell id="Z0ypos2vbF20BTmYO5op-2" value="" style="part=1;html=1;resizeHeight=0;strokeColor=none;fillColor=none;verticalAlign=middle;spacingLeft=4;spacingRight=4;overflow=hidden;rotatable=0;points=[[0,0.5],[1,0.5]];portConstraint=eastwest;swimlaneFillColor=#ffffff;strokeOpacity=100;fillOpacity=100;whiteSpace=wrap;fontSize=13;align=center;" parent="Z0ypos2vbF20BTmYO5op-1" vertex="1">
          <mxGeometry y="25" width="190" height="31" as="geometry" />
        </mxCell>
        <mxCell id="Z0ypos2vbF20BTmYO5op-3" value="" style="line;strokeWidth=1;fillColor=none;align=left;verticalAlign=middle;spacingTop=-1;spacingLeft=3;spacingRight=3;rotatable=0;labelPosition=right;points=[];portConstraint=eastwest;" parent="Z0ypos2vbF20BTmYO5op-1" vertex="1">
          <mxGeometry y="56" width="190" height="8" as="geometry" />
        </mxCell>
        <mxCell id="Z0ypos2vbF20BTmYO5op-4" value="NewPlan(User_profile u, ArrayList ExerciseList,&lt;br&gt;ArrayList MealList);" style="part=1;html=1;resizeHeight=0;strokeColor=none;fillColor=none;verticalAlign=middle;spacingLeft=4;spacingRight=4;overflow=hidden;rotatable=0;points=[[0,0.5],[1,0.5]];portConstraint=eastwest;swimlaneFillColor=#ffffff;strokeOpacity=100;fillOpacity=100;whiteSpace=wrap;fontSize=13;align=center;" parent="Z0ypos2vbF20BTmYO5op-1" vertex="1">
          <mxGeometry y="64" width="190" height="76" as="geometry" />
        </mxCell>
        <mxCell id="Z0ypos2vbF20BTmYO5op-6" value="" style="html=1;jettySize=18;whiteSpace=wrap;fontSize=13;strokeColor=#333333;strokeOpacity=100;strokeWidth=0.8;rounded=1;arcSize=24;edgeStyle=orthogonalEdgeStyle;startArrow=none;endArrow=diamond;endFill=0;endSize=16;exitX=-0.007;exitY=0.11;exitPerimeter=0;entryX=1.006;entryY=0.238;lucidId=kpgSvHBK-gC9;entryDx=0;entryDy=0;entryPerimeter=0;exitDx=0;exitDy=0;" parent="1" source="Z0ypos2vbF20BTmYO5op-1" target="8wgsg1sAs0LQzEi6TIEt-12" edge="1">
          <mxGeometry width="100" height="100" relative="1" as="geometry">
            <Array as="points">
              <mxPoint x="1062" y="50" />
              <mxPoint x="930" y="50" />
              <mxPoint x="930" y="189" />
            </Array>
            <mxPoint x="1019" y="221" as="sourcePoint" />
            <mxPoint x="1075" y="56" as="targetPoint" />
          </mxGeometry>
        </mxCell>
        <mxCell id="Z0ypos2vbF20BTmYO5op-7" value="1" style="html=1;overflow=block;blockSpacing=1;whiteSpace=wrap;fontSize=18.5;fontColor=#333333;align=left;spacing=3.8;verticalAlign=top;strokeColor=none;fillOpacity=0;fillColor=#ffffff;strokeWidth=0;lucidId=spgSZ6_VR8ri;" parent="1" vertex="1">
          <mxGeometry x="1037.5" y="12" width="15" height="24" as="geometry" />
        </mxCell>
        <mxCell id="Z0ypos2vbF20BTmYO5op-8" value="1" style="html=1;overflow=block;blockSpacing=1;whiteSpace=wrap;fontSize=18.5;fontColor=#333333;align=left;spacing=3.8;verticalAlign=top;strokeColor=none;fillOpacity=0;fillColor=#ffffff;strokeWidth=0;lucidId=spgSZ6_VR8ri;" parent="1" vertex="1">
          <mxGeometry x="895" y="158" width="15" height="24" as="geometry" />
        </mxCell>
        <mxCell id="8ma3rGhwaL6_yf_OdXnH-1" value="Main_Menu" style="html=1;overflow=block;blockSpacing=1;swimlane;childLayout=stackLayout;horizontal=1;horizontalStack=0;resizeParent=1;resizeParentMax=0;resizeLast=0;collapsible=0;marginBottom=0;swimlaneFillColor=#ffffff;startSize=25;whiteSpace=wrap;fontSize=15.2;fontColor=#333333;fontStyle=1;align=center;spacing=0;strokeColor=#333333;strokeOpacity=100;fillOpacity=100;fillColor=#ffffff;strokeWidth=1.5;" parent="1" vertex="1">
          <mxGeometry x="827" y="1050" width="190" height="130" as="geometry" />
        </mxCell>
        <mxCell id="8ma3rGhwaL6_yf_OdXnH-2" value="ArrayList ExerciseList&lt;br&gt;ArrayList FoodList&lt;br&gt;ArrayList DrinkList&lt;br&gt;ArrayList MealList" style="part=1;html=1;resizeHeight=0;strokeColor=none;fillColor=none;verticalAlign=middle;spacingLeft=4;spacingRight=4;overflow=hidden;rotatable=0;points=[[0,0.5],[1,0.5]];portConstraint=eastwest;swimlaneFillColor=#ffffff;strokeOpacity=100;fillOpacity=100;whiteSpace=wrap;fontSize=13;align=center;" parent="8ma3rGhwaL6_yf_OdXnH-1" vertex="1">
          <mxGeometry y="25" width="190" height="75" as="geometry" />
        </mxCell>
        <mxCell id="8ma3rGhwaL6_yf_OdXnH-3" value="" style="line;strokeWidth=1;fillColor=none;align=left;verticalAlign=middle;spacingTop=-1;spacingLeft=3;spacingRight=3;rotatable=0;labelPosition=right;points=[];portConstraint=eastwest;" parent="8ma3rGhwaL6_yf_OdXnH-1" vertex="1">
          <mxGeometry y="100" width="190" height="8" as="geometry" />
        </mxCell>
        <mxCell id="8ma3rGhwaL6_yf_OdXnH-4" value="void Main()" style="part=1;html=1;resizeHeight=0;strokeColor=none;fillColor=none;verticalAlign=middle;spacingLeft=4;spacingRight=4;overflow=hidden;rotatable=0;points=[[0,0.5],[1,0.5]];portConstraint=eastwest;swimlaneFillColor=#ffffff;strokeOpacity=100;fillOpacity=100;whiteSpace=wrap;fontSize=13;align=center;" parent="8ma3rGhwaL6_yf_OdXnH-1" vertex="1">
          <mxGeometry y="108" width="190" height="22" as="geometry" />
        </mxCell>
        <mxCell id="8ma3rGhwaL6_yf_OdXnH-8" value="" style="html=1;jettySize=18;whiteSpace=wrap;fontSize=13;strokeColor=#333333;strokeOpacity=100;strokeWidth=0.8;rounded=1;arcSize=24;edgeStyle=orthogonalEdgeStyle;startArrow=none;endArrow=none;exitX=1;exitY=0.5;entryX=-0.005;entryY=0.092;lucidId=_tgS7pwF0Jqt;exitDx=0;exitDy=0;entryDx=0;entryDy=0;entryPerimeter=0;" parent="1" source="8ma3rGhwaL6_yf_OdXnH-2" target="8wgsg1sAs0LQzEi6TIEt-93" edge="1">
          <mxGeometry width="100" height="100" relative="1" as="geometry">
            <Array as="points" />
            <mxPoint x="262" y="547" as="sourcePoint" />
            <mxPoint x="478" y="700" as="targetPoint" />
          </mxGeometry>
        </mxCell>
        <mxCell id="8ma3rGhwaL6_yf_OdXnH-9" value="" style="html=1;jettySize=18;whiteSpace=wrap;fontSize=13;strokeColor=#333333;strokeOpacity=100;strokeWidth=0.8;rounded=1;arcSize=24;edgeStyle=orthogonalEdgeStyle;startArrow=none;endArrow=none;exitX=0.75;exitY=0;entryX=0;entryY=0.5;lucidId=_tgS7pwF0Jqt;exitDx=0;exitDy=0;entryDx=0;entryDy=0;" parent="1" source="8ma3rGhwaL6_yf_OdXnH-1" target="Z0ypos2vbF20BTmYO5op-2" edge="1">
          <mxGeometry width="100" height="100" relative="1" as="geometry">
            <Array as="points">
              <mxPoint x="970" y="100" />
              <mxPoint x="1063" y="100" />
            </Array>
            <mxPoint x="478" y="900" as="sourcePoint" />
            <mxPoint x="1180" y="840" as="targetPoint" />
          </mxGeometry>
        </mxCell>
        <mxCell id="r8SkLgFx0dFkhAh_9Jzo-1" value="Forum" style="html=1;overflow=block;blockSpacing=1;swimlane;childLayout=stackLayout;horizontal=1;horizontalStack=0;resizeParent=1;resizeParentMax=0;resizeLast=0;collapsible=0;marginBottom=0;swimlaneFillColor=#ffffff;startSize=25;whiteSpace=wrap;fontSize=15.2;fontColor=#333333;fontStyle=1;align=center;spacing=0;strokeColor=#333333;strokeOpacity=100;fillOpacity=100;fillColor=#ffffff;strokeWidth=1.5;" vertex="1" parent="1">
          <mxGeometry x="20" y="28" width="280" height="170" as="geometry" />
        </mxCell>
        <mxCell id="r8SkLgFx0dFkhAh_9Jzo-2" value="Map&amp;lt;String,String&amp;gt; users&lt;br&gt;Map&amp;lt;String, List&amp;lt;String&amp;gt;&amp;gt; userPosts&lt;br&gt;Map&amp;lt;String, List&amp;lt;String&amp;gt;&amp;gt; userMessages&lt;br&gt;Map&amp;lt;String,List&amp;lt;String&amp;gt;&amp;gt; userConnections&lt;br&gt;String currentUser" style="part=1;html=1;resizeHeight=0;strokeColor=none;fillColor=none;verticalAlign=middle;spacingLeft=4;spacingRight=4;overflow=hidden;rotatable=0;points=[[0,0.5],[1,0.5]];portConstraint=eastwest;swimlaneFillColor=#ffffff;strokeOpacity=100;fillOpacity=100;whiteSpace=wrap;fontSize=13;align=center;" vertex="1" parent="r8SkLgFx0dFkhAh_9Jzo-1">
          <mxGeometry y="25" width="280" height="85" as="geometry" />
        </mxCell>
        <mxCell id="r8SkLgFx0dFkhAh_9Jzo-3" value="" style="line;strokeWidth=1;fillColor=none;align=left;verticalAlign=middle;spacingTop=-1;spacingLeft=3;spacingRight=3;rotatable=0;labelPosition=right;points=[];portConstraint=eastwest;" vertex="1" parent="r8SkLgFx0dFkhAh_9Jzo-1">
          <mxGeometry y="110" width="280" height="8" as="geometry" />
        </mxCell>
        <mxCell id="r8SkLgFx0dFkhAh_9Jzo-4" value="forum()&lt;br&gt;login(Scanner)&lt;br&gt;gotoFeed()" style="part=1;html=1;resizeHeight=0;strokeColor=none;fillColor=none;verticalAlign=middle;spacingLeft=4;spacingRight=4;overflow=hidden;rotatable=0;points=[[0,0.5],[1,0.5]];portConstraint=eastwest;swimlaneFillColor=#ffffff;strokeOpacity=100;fillOpacity=100;whiteSpace=wrap;fontSize=13;align=center;" vertex="1" parent="r8SkLgFx0dFkhAh_9Jzo-1">
          <mxGeometry y="118" width="280" height="52" as="geometry" />
        </mxCell>
        <mxCell id="r8SkLgFx0dFkhAh_9Jzo-5" value="Messages" style="html=1;overflow=block;blockSpacing=1;swimlane;childLayout=stackLayout;horizontal=1;horizontalStack=0;resizeParent=1;resizeParentMax=0;resizeLast=0;collapsible=0;marginBottom=0;swimlaneFillColor=#ffffff;startSize=25;whiteSpace=wrap;fontSize=15.2;fontColor=#333333;fontStyle=1;align=center;spacing=0;strokeColor=#333333;strokeOpacity=100;fillOpacity=100;fillColor=#ffffff;strokeWidth=1.5;" vertex="1" parent="1">
          <mxGeometry x="10" y="490" width="160" height="130" as="geometry" />
        </mxCell>
        <mxCell id="r8SkLgFx0dFkhAh_9Jzo-6" value="" style="part=1;html=1;resizeHeight=0;strokeColor=none;fillColor=none;verticalAlign=middle;spacingLeft=4;spacingRight=4;overflow=hidden;rotatable=0;points=[[0,0.5],[1,0.5]];portConstraint=eastwest;swimlaneFillColor=#ffffff;strokeOpacity=100;fillOpacity=100;whiteSpace=wrap;fontSize=13;align=center;" vertex="1" parent="r8SkLgFx0dFkhAh_9Jzo-5">
          <mxGeometry y="25" width="160" height="31" as="geometry" />
        </mxCell>
        <mxCell id="r8SkLgFx0dFkhAh_9Jzo-7" value="" style="line;strokeWidth=1;fillColor=none;align=left;verticalAlign=middle;spacingTop=-1;spacingLeft=3;spacingRight=3;rotatable=0;labelPosition=right;points=[];portConstraint=eastwest;" vertex="1" parent="r8SkLgFx0dFkhAh_9Jzo-5">
          <mxGeometry y="56" width="160" height="8" as="geometry" />
        </mxCell>
        <mxCell id="r8SkLgFx0dFkhAh_9Jzo-8" value="openMessages(scanner)&lt;br&gt;showMessages(scanner)" style="part=1;html=1;resizeHeight=0;strokeColor=none;fillColor=none;verticalAlign=middle;spacingLeft=4;spacingRight=4;overflow=hidden;rotatable=0;points=[[0,0.5],[1,0.5]];portConstraint=eastwest;swimlaneFillColor=#ffffff;strokeOpacity=100;fillOpacity=100;whiteSpace=wrap;fontSize=13;align=center;" vertex="1" parent="r8SkLgFx0dFkhAh_9Jzo-5">
          <mxGeometry y="64" width="160" height="66" as="geometry" />
        </mxCell>
        <mxCell id="r8SkLgFx0dFkhAh_9Jzo-9" value="" style="html=1;jettySize=18;whiteSpace=wrap;fontSize=13;strokeColor=#333333;strokeOpacity=100;strokeWidth=0.8;rounded=1;arcSize=24;edgeStyle=orthogonalEdgeStyle;startArrow=none;endArrow=diamond;endFill=1;endSize=16;exitX=0.419;exitY=-0.023;exitPerimeter=0;entryX=0.071;entryY=1.077;entryPerimeter=0;lucidId=otgSI4RJ-BR.;exitDx=0;exitDy=0;entryDx=0;entryDy=0;" edge="1" parent="1" source="r8SkLgFx0dFkhAh_9Jzo-5" target="r8SkLgFx0dFkhAh_9Jzo-4">
          <mxGeometry width="100" height="100" relative="1" as="geometry">
            <Array as="points">
              <mxPoint x="77" y="202" />
            </Array>
            <mxPoint x="120" y="220" as="sourcePoint" />
            <mxPoint x="142" y="96" as="targetPoint" />
          </mxGeometry>
        </mxCell>
        <mxCell id="r8SkLgFx0dFkhAh_9Jzo-10" value="Post" style="html=1;overflow=block;blockSpacing=1;swimlane;childLayout=stackLayout;horizontal=1;horizontalStack=0;resizeParent=1;resizeParentMax=0;resizeLast=0;collapsible=0;marginBottom=0;swimlaneFillColor=#ffffff;startSize=25;whiteSpace=wrap;fontSize=15.2;fontColor=#333333;fontStyle=1;align=center;spacing=0;strokeColor=#333333;strokeOpacity=100;fillOpacity=100;fillColor=#ffffff;strokeWidth=1.5;" vertex="1" parent="1">
          <mxGeometry x="40" y="644" width="160" height="130" as="geometry" />
        </mxCell>
        <mxCell id="r8SkLgFx0dFkhAh_9Jzo-11" value="" style="part=1;html=1;resizeHeight=0;strokeColor=none;fillColor=none;verticalAlign=middle;spacingLeft=4;spacingRight=4;overflow=hidden;rotatable=0;points=[[0,0.5],[1,0.5]];portConstraint=eastwest;swimlaneFillColor=#ffffff;strokeOpacity=100;fillOpacity=100;whiteSpace=wrap;fontSize=13;align=center;" vertex="1" parent="r8SkLgFx0dFkhAh_9Jzo-10">
          <mxGeometry y="25" width="160" height="31" as="geometry" />
        </mxCell>
        <mxCell id="r8SkLgFx0dFkhAh_9Jzo-12" value="" style="line;strokeWidth=1;fillColor=none;align=left;verticalAlign=middle;spacingTop=-1;spacingLeft=3;spacingRight=3;rotatable=0;labelPosition=right;points=[];portConstraint=eastwest;" vertex="1" parent="r8SkLgFx0dFkhAh_9Jzo-10">
          <mxGeometry y="56" width="160" height="8" as="geometry" />
        </mxCell>
        <mxCell id="r8SkLgFx0dFkhAh_9Jzo-13" value="makePost(scanner)&lt;br&gt;writePost(scanner)&lt;br&gt;checkPost(post)&lt;br&gt;confirm(post)" style="part=1;html=1;resizeHeight=0;strokeColor=none;fillColor=none;verticalAlign=middle;spacingLeft=4;spacingRight=4;overflow=hidden;rotatable=0;points=[[0,0.5],[1,0.5]];portConstraint=eastwest;swimlaneFillColor=#ffffff;strokeOpacity=100;fillOpacity=100;whiteSpace=wrap;fontSize=13;align=center;" vertex="1" parent="r8SkLgFx0dFkhAh_9Jzo-10">
          <mxGeometry y="64" width="160" height="66" as="geometry" />
        </mxCell>
        <mxCell id="r8SkLgFx0dFkhAh_9Jzo-14" value="" style="html=1;jettySize=18;whiteSpace=wrap;fontSize=13;strokeColor=#333333;strokeOpacity=100;strokeWidth=0.8;rounded=1;arcSize=24;edgeStyle=orthogonalEdgeStyle;startArrow=none;endArrow=diamond;endFill=1;endSize=16;lucidId=otgSI4RJ-BR.;exitX=0.413;exitY=-0.023;exitDx=0;exitDy=0;exitPerimeter=0;entryX=0.518;entryY=1.115;entryDx=0;entryDy=0;entryPerimeter=0;" edge="1" parent="1" source="r8SkLgFx0dFkhAh_9Jzo-10" target="r8SkLgFx0dFkhAh_9Jzo-4">
          <mxGeometry width="100" height="100" relative="1" as="geometry">
            <Array as="points">
              <mxPoint x="190" y="641" />
              <mxPoint x="190" y="280" />
              <mxPoint x="180" y="280" />
              <mxPoint x="180" y="204" />
            </Array>
            <mxPoint x="100" y="470" as="sourcePoint" />
            <mxPoint x="220" y="270" as="targetPoint" />
          </mxGeometry>
        </mxCell>
        <mxCell id="r8SkLgFx0dFkhAh_9Jzo-17" value="" style="html=1;jettySize=18;whiteSpace=wrap;fontSize=13;strokeColor=#333333;strokeOpacity=100;strokeWidth=0.8;rounded=1;arcSize=24;edgeStyle=orthogonalEdgeStyle;startArrow=none;endArrow=diamond;endFill=1;endSize=16;lucidId=otgSI4RJ-BR.;exitX=0.711;exitY=0.022;exitDx=0;exitDy=0;exitPerimeter=0;" edge="1" parent="1" source="r8SkLgFx0dFkhAh_9Jzo-18">
          <mxGeometry width="100" height="100" relative="1" as="geometry">
            <Array as="points">
              <mxPoint x="220" y="802" />
              <mxPoint x="220" y="210" />
              <mxPoint x="210" y="210" />
              <mxPoint x="210" y="200" />
            </Array>
            <mxPoint x="197" y="640" as="sourcePoint" />
            <mxPoint x="230" y="200" as="targetPoint" />
          </mxGeometry>
        </mxCell>
        <mxCell id="r8SkLgFx0dFkhAh_9Jzo-18" value="Feed" style="html=1;overflow=block;blockSpacing=1;swimlane;childLayout=stackLayout;horizontal=1;horizontalStack=0;resizeParent=1;resizeParentMax=0;resizeLast=0;collapsible=0;marginBottom=0;swimlaneFillColor=#ffffff;startSize=25;whiteSpace=wrap;fontSize=15.2;fontColor=#333333;fontStyle=1;align=center;spacing=0;strokeColor=#333333;strokeOpacity=100;fillOpacity=100;fillColor=#ffffff;strokeWidth=1.5;" vertex="1" parent="1">
          <mxGeometry x="55" y="800" width="220" height="104" as="geometry" />
        </mxCell>
        <mxCell id="r8SkLgFx0dFkhAh_9Jzo-19" value="List&amp;lt;String&amp;gt; currentUserConnectionsList" style="part=1;html=1;resizeHeight=0;strokeColor=none;fillColor=none;verticalAlign=middle;spacingLeft=4;spacingRight=4;overflow=hidden;rotatable=0;points=[[0,0.5],[1,0.5]];portConstraint=eastwest;swimlaneFillColor=#ffffff;strokeOpacity=100;fillOpacity=100;whiteSpace=wrap;fontSize=13;align=center;" vertex="1" parent="r8SkLgFx0dFkhAh_9Jzo-18">
          <mxGeometry y="25" width="220" height="35" as="geometry" />
        </mxCell>
        <mxCell id="r8SkLgFx0dFkhAh_9Jzo-20" value="" style="line;strokeWidth=1;fillColor=none;align=left;verticalAlign=middle;spacingTop=-1;spacingLeft=3;spacingRight=3;rotatable=0;labelPosition=right;points=[];portConstraint=eastwest;" vertex="1" parent="r8SkLgFx0dFkhAh_9Jzo-18">
          <mxGeometry y="60" width="220" height="8" as="geometry" />
        </mxCell>
        <mxCell id="r8SkLgFx0dFkhAh_9Jzo-21" value="gotoFeed" style="part=1;html=1;resizeHeight=0;strokeColor=none;fillColor=none;verticalAlign=middle;spacingLeft=4;spacingRight=4;overflow=hidden;rotatable=0;points=[[0,0.5],[1,0.5]];portConstraint=eastwest;swimlaneFillColor=#ffffff;strokeOpacity=100;fillOpacity=100;whiteSpace=wrap;fontSize=13;align=center;" vertex="1" parent="r8SkLgFx0dFkhAh_9Jzo-18">
          <mxGeometry y="68" width="220" height="36" as="geometry" />
        </mxCell>
        <mxCell id="r8SkLgFx0dFkhAh_9Jzo-22" value="Profile_Page" style="html=1;overflow=block;blockSpacing=1;swimlane;childLayout=stackLayout;horizontal=1;horizontalStack=0;resizeParent=1;resizeParentMax=0;resizeLast=0;collapsible=0;marginBottom=0;swimlaneFillColor=#ffffff;startSize=25;whiteSpace=wrap;fontSize=15.2;fontColor=#333333;fontStyle=1;align=center;spacing=0;strokeColor=#333333;strokeOpacity=100;fillOpacity=100;fillColor=#ffffff;strokeWidth=1.5;" vertex="1" parent="1">
          <mxGeometry x="293" y="370" width="160" height="130" as="geometry" />
        </mxCell>
        <mxCell id="r8SkLgFx0dFkhAh_9Jzo-23" value="" style="part=1;html=1;resizeHeight=0;strokeColor=none;fillColor=none;verticalAlign=middle;spacingLeft=4;spacingRight=4;overflow=hidden;rotatable=0;points=[[0,0.5],[1,0.5]];portConstraint=eastwest;swimlaneFillColor=#ffffff;strokeOpacity=100;fillOpacity=100;whiteSpace=wrap;fontSize=13;align=center;" vertex="1" parent="r8SkLgFx0dFkhAh_9Jzo-22">
          <mxGeometry y="25" width="160" height="31" as="geometry" />
        </mxCell>
        <mxCell id="r8SkLgFx0dFkhAh_9Jzo-24" value="" style="line;strokeWidth=1;fillColor=none;align=left;verticalAlign=middle;spacingTop=-1;spacingLeft=3;spacingRight=3;rotatable=0;labelPosition=right;points=[];portConstraint=eastwest;" vertex="1" parent="r8SkLgFx0dFkhAh_9Jzo-22">
          <mxGeometry y="56" width="160" height="8" as="geometry" />
        </mxCell>
        <mxCell id="r8SkLgFx0dFkhAh_9Jzo-25" value="showProfilePage(scanner)&lt;br&gt;openList()" style="part=1;html=1;resizeHeight=0;strokeColor=none;fillColor=none;verticalAlign=middle;spacingLeft=4;spacingRight=4;overflow=hidden;rotatable=0;points=[[0,0.5],[1,0.5]];portConstraint=eastwest;swimlaneFillColor=#ffffff;strokeOpacity=100;fillOpacity=100;whiteSpace=wrap;fontSize=13;align=center;" vertex="1" parent="r8SkLgFx0dFkhAh_9Jzo-22">
          <mxGeometry y="64" width="160" height="66" as="geometry" />
        </mxCell>
        <mxCell id="r8SkLgFx0dFkhAh_9Jzo-26" value="" style="html=1;jettySize=18;whiteSpace=wrap;fontSize=13;strokeColor=#333333;strokeOpacity=100;strokeWidth=0.8;rounded=1;arcSize=24;edgeStyle=orthogonalEdgeStyle;startArrow=none;endArrow=diamond;endFill=1;endSize=16;exitX=0;exitY=0.5;entryX=0.863;entryY=0.988;entryPerimeter=0;lucidId=otgSI4RJ-BR.;exitDx=0;exitDy=0;entryDx=0;entryDy=0;" edge="1" parent="1" source="r8SkLgFx0dFkhAh_9Jzo-23" target="r8SkLgFx0dFkhAh_9Jzo-4">
          <mxGeometry width="100" height="100" relative="1" as="geometry">
            <Array as="points">
              <mxPoint x="280" y="411" />
              <mxPoint x="280" y="212" />
              <mxPoint x="262" y="212" />
            </Array>
            <mxPoint x="87" y="497" as="sourcePoint" />
            <mxPoint x="70" y="212" as="targetPoint" />
          </mxGeometry>
        </mxCell>
        <mxCell id="r8SkLgFx0dFkhAh_9Jzo-27" value="Products" style="html=1;overflow=block;blockSpacing=1;swimlane;childLayout=stackLayout;horizontal=1;horizontalStack=0;resizeParent=1;resizeParentMax=0;resizeLast=0;collapsible=0;marginBottom=0;swimlaneFillColor=#ffffff;startSize=25;whiteSpace=wrap;fontSize=15.2;fontColor=#333333;fontStyle=1;align=center;spacing=0;strokeColor=#333333;strokeOpacity=100;fillOpacity=100;fillColor=#ffffff;strokeWidth=1.5;" vertex="1" parent="1">
          <mxGeometry x="300" y="729" width="170" height="200" as="geometry" />
        </mxCell>
        <mxCell id="r8SkLgFx0dFkhAh_9Jzo-28" value="Map&amp;lt;String,Integer&amp;gt; stock" style="part=1;html=1;resizeHeight=0;strokeColor=none;fillColor=none;verticalAlign=middle;spacingLeft=4;spacingRight=4;overflow=hidden;rotatable=0;points=[[0,0.5],[1,0.5]];portConstraint=eastwest;swimlaneFillColor=#ffffff;strokeOpacity=100;fillOpacity=100;whiteSpace=wrap;fontSize=13;align=center;" vertex="1" parent="r8SkLgFx0dFkhAh_9Jzo-27">
          <mxGeometry y="25" width="170" height="50" as="geometry" />
        </mxCell>
        <mxCell id="r8SkLgFx0dFkhAh_9Jzo-29" value="" style="line;strokeWidth=1;fillColor=none;align=left;verticalAlign=middle;spacingTop=-1;spacingLeft=3;spacingRight=3;rotatable=0;labelPosition=right;points=[];portConstraint=eastwest;" vertex="1" parent="r8SkLgFx0dFkhAh_9Jzo-27">
          <mxGeometry y="75" width="170" height="8" as="geometry" />
        </mxCell>
        <mxCell id="r8SkLgFx0dFkhAh_9Jzo-30" value="checkStock()&lt;br&gt;changeThings(scanner)&lt;br&gt;addProduct(scanner)&lt;br&gt;deleteProduct(scanner)&lt;br&gt;updateProduct(scanner)&lt;br&gt;openPricingPage(scanner)&lt;br&gt;makeChanges(scanner)" style="part=1;html=1;resizeHeight=0;strokeColor=none;fillColor=none;verticalAlign=middle;spacingLeft=4;spacingRight=4;overflow=hidden;rotatable=0;points=[[0,0.5],[1,0.5]];portConstraint=eastwest;swimlaneFillColor=#ffffff;strokeOpacity=100;fillOpacity=100;whiteSpace=wrap;fontSize=13;align=center;" vertex="1" parent="r8SkLgFx0dFkhAh_9Jzo-27">
          <mxGeometry y="83" width="170" height="117" as="geometry" />
        </mxCell>
        <mxCell id="r8SkLgFx0dFkhAh_9Jzo-31" value="ΕShop" style="html=1;overflow=block;blockSpacing=1;swimlane;childLayout=stackLayout;horizontal=1;horizontalStack=0;resizeParent=1;resizeParentMax=0;resizeLast=0;collapsible=0;marginBottom=0;swimlaneFillColor=#ffffff;startSize=25;whiteSpace=wrap;fontSize=15.2;fontColor=#333333;fontStyle=1;align=center;spacing=0;strokeColor=#333333;strokeOpacity=100;fillOpacity=100;fillColor=#ffffff;strokeWidth=1.5;" vertex="1" parent="1">
          <mxGeometry x="325.5" y="514" width="330" height="160" as="geometry" />
        </mxCell>
        <mxCell id="r8SkLgFx0dFkhAh_9Jzo-32" value="String ADMIN_USERNAME&lt;br&gt;String ADMIN_PASSWORD" style="part=1;html=1;resizeHeight=0;strokeColor=none;fillColor=none;verticalAlign=middle;spacingLeft=4;spacingRight=4;overflow=hidden;rotatable=0;points=[[0,0.5],[1,0.5]];portConstraint=eastwest;swimlaneFillColor=#ffffff;strokeOpacity=100;fillOpacity=100;whiteSpace=wrap;fontSize=13;align=center;" vertex="1" parent="r8SkLgFx0dFkhAh_9Jzo-31">
          <mxGeometry y="25" width="330" height="56" as="geometry" />
        </mxCell>
        <mxCell id="r8SkLgFx0dFkhAh_9Jzo-33" value="" style="line;strokeWidth=1;fillColor=none;align=left;verticalAlign=middle;spacingTop=-1;spacingLeft=3;spacingRight=3;rotatable=0;labelPosition=right;points=[];portConstraint=eastwest;" vertex="1" parent="r8SkLgFx0dFkhAh_9Jzo-31">
          <mxGeometry y="81" width="330" height="8" as="geometry" />
        </mxCell>
        <mxCell id="r8SkLgFx0dFkhAh_9Jzo-34" value="void checkadmin()&lt;br&gt;boolean isAdmin(String username,String password)&lt;br&gt;void editEshop(scanner)&lt;br&gt;confirmChanges(scanner)" style="part=1;html=1;resizeHeight=0;strokeColor=none;fillColor=none;verticalAlign=middle;spacingLeft=4;spacingRight=4;overflow=hidden;rotatable=0;points=[[0,0.5],[1,0.5]];portConstraint=eastwest;swimlaneFillColor=#ffffff;strokeOpacity=100;fillOpacity=100;whiteSpace=wrap;fontSize=13;align=center;" vertex="1" parent="r8SkLgFx0dFkhAh_9Jzo-31">
          <mxGeometry y="89" width="330" height="71" as="geometry" />
        </mxCell>
        <mxCell id="r8SkLgFx0dFkhAh_9Jzo-35" value="" style="html=1;jettySize=18;whiteSpace=wrap;fontSize=13;strokeColor=#333333;strokeOpacity=100;strokeWidth=0.8;rounded=1;arcSize=24;edgeStyle=orthogonalEdgeStyle;startArrow=none;endArrow=diamond;endFill=1;endSize=16;exitX=0.5;exitY=-0.009;exitPerimeter=0;entryX=0.5;entryY=1.009;entryPerimeter=0;lucidId=RsgSfP-QLonj;" edge="1" parent="1" source="r8SkLgFx0dFkhAh_9Jzo-27" target="r8SkLgFx0dFkhAh_9Jzo-31">
          <mxGeometry width="100" height="100" relative="1" as="geometry">
            <Array as="points" />
          </mxGeometry>
        </mxCell>
        <mxCell id="r8SkLgFx0dFkhAh_9Jzo-36" value="1" style="html=1;overflow=block;blockSpacing=1;whiteSpace=wrap;fontSize=18.5;fontColor=#333333;align=left;spacing=3.8;verticalAlign=top;strokeColor=none;fillOpacity=0;fillColor=#ffffff;strokeWidth=0;lucidId=7sgSvioq6BqS;" vertex="1" parent="1">
          <mxGeometry x="483" y="621" width="15" height="24" as="geometry" />
        </mxCell>
        <mxCell id="r8SkLgFx0dFkhAh_9Jzo-37" value="0..." style="html=1;overflow=block;blockSpacing=1;whiteSpace=wrap;fontSize=18.5;fontColor=#333333;align=left;spacing=3.8;verticalAlign=top;strokeColor=none;fillOpacity=0;fillColor=#ffffff;strokeWidth=0;lucidId=TtgSz02v2KjM;" vertex="1" parent="1">
          <mxGeometry x="482" y="490" width="15" height="24" as="geometry" />
        </mxCell>
        <mxCell id="r8SkLgFx0dFkhAh_9Jzo-38" value="Categories" style="html=1;overflow=block;blockSpacing=1;swimlane;childLayout=stackLayout;horizontal=1;horizontalStack=0;resizeParent=1;resizeParentMax=0;resizeLast=0;collapsible=0;marginBottom=0;swimlaneFillColor=#ffffff;startSize=25;whiteSpace=wrap;fontSize=15.2;fontColor=#333333;fontStyle=1;align=center;spacing=0;strokeColor=#333333;strokeOpacity=100;fillOpacity=100;fillColor=#ffffff;strokeWidth=1.5;" vertex="1" parent="1">
          <mxGeometry x="500" y="800" width="170" height="150" as="geometry" />
        </mxCell>
        <mxCell id="r8SkLgFx0dFkhAh_9Jzo-39" value="List&amp;lt;String&amp;gt; categories" style="part=1;html=1;resizeHeight=0;strokeColor=none;fillColor=none;verticalAlign=middle;spacingLeft=4;spacingRight=4;overflow=hidden;rotatable=0;points=[[0,0.5],[1,0.5]];portConstraint=eastwest;swimlaneFillColor=#ffffff;strokeOpacity=100;fillOpacity=100;whiteSpace=wrap;fontSize=13;align=center;" vertex="1" parent="r8SkLgFx0dFkhAh_9Jzo-38">
          <mxGeometry y="25" width="170" height="50" as="geometry" />
        </mxCell>
        <mxCell id="r8SkLgFx0dFkhAh_9Jzo-40" value="" style="line;strokeWidth=1;fillColor=none;align=left;verticalAlign=middle;spacingTop=-1;spacingLeft=3;spacingRight=3;rotatable=0;labelPosition=right;points=[];portConstraint=eastwest;" vertex="1" parent="r8SkLgFx0dFkhAh_9Jzo-38">
          <mxGeometry y="75" width="170" height="8" as="geometry" />
        </mxCell>
        <mxCell id="r8SkLgFx0dFkhAh_9Jzo-41" value="sortInCategories" style="part=1;html=1;resizeHeight=0;strokeColor=none;fillColor=none;verticalAlign=middle;spacingLeft=4;spacingRight=4;overflow=hidden;rotatable=0;points=[[0,0.5],[1,0.5]];portConstraint=eastwest;swimlaneFillColor=#ffffff;strokeOpacity=100;fillOpacity=100;whiteSpace=wrap;fontSize=13;align=center;" vertex="1" parent="r8SkLgFx0dFkhAh_9Jzo-38">
          <mxGeometry y="83" width="170" height="67" as="geometry" />
        </mxCell>
        <mxCell id="r8SkLgFx0dFkhAh_9Jzo-42" value="" style="html=1;jettySize=18;whiteSpace=wrap;fontSize=13;strokeColor=#333333;strokeOpacity=100;strokeWidth=0.8;rounded=1;arcSize=24;edgeStyle=orthogonalEdgeStyle;startArrow=none;endArrow=diamond;endFill=1;endSize=16;exitX=0.406;exitY=-0.015;exitPerimeter=0;entryX=0.524;entryY=1.07;entryPerimeter=0;lucidId=RsgSfP-QLonj;entryDx=0;entryDy=0;exitDx=0;exitDy=0;" edge="1" parent="1" source="r8SkLgFx0dFkhAh_9Jzo-38" target="r8SkLgFx0dFkhAh_9Jzo-34">
          <mxGeometry width="100" height="100" relative="1" as="geometry">
            <Array as="points">
              <mxPoint x="550" y="757" />
              <mxPoint x="550" y="739" />
              <mxPoint x="509" y="739" />
              <mxPoint x="509" y="719" />
              <mxPoint x="580" y="719" />
              <mxPoint x="580" y="689" />
              <mxPoint x="460" y="689" />
              <mxPoint x="460" y="679" />
            </Array>
            <mxPoint x="510" y="699" as="sourcePoint" />
            <mxPoint x="657" y="647" as="targetPoint" />
          </mxGeometry>
        </mxCell>
      </root>
    </mxGraphModel>
  </diagram>
</mxfile>
